if (_typeface_js && _typeface_js.loadFace) _typeface_js.loadFace({"glyphs":{"0":{"ha":878,"x_min":102,"x_max":777,"o":"m 190 115 q 146 179 190 115 q 102 472 102 243 q 190 830 102 701 q 439 958 278 958 q 688 830 600 958 q 777 472 777 701 q 688 115 777 243 q 439 -14 600 -14 q 190 115 278 -14 m 200 472 q 262 179 200 281 q 439 77 324 77 q 615 179 553 77 q 677 472 677 281 q 615 765 677 661 q 439 868 553 868 q 262 765 325 868 q 200 472 200 661 z "},"1":{"ha":452,"x_min":49,"x_max":309,"o":"m 49 725 q 52 755 36 740 l 245 945 l 283 945 q 301 937 294 945 q 309 918 309 928 l 309 26 q 301 8 309 16 q 283 0 294 0 l 233 0 q 214 8 222 0 q 207 26 207 16 l 207 772 l 107 694 q 75 696 89 681 l 49 725 z "},"2":{"ha":720,"x_min":58,"x_max":644,"o":"m 58 26 l 58 68 q 229 252 115 129 q 399 436 342 375 q 539 688 539 589 q 528 749 539 720 q 496 805 517 779 q 435 848 474 832 q 345 864 395 864 q 147 760 244 864 q 129 751 139 751 q 110 760 118 751 l 82 786 q 75 803 75 793 q 81 822 74 813 q 92 837 85 827 q 126 869 100 846 q 180 911 152 893 q 254 944 209 929 q 345 958 298 958 q 475 937 417 958 q 569 878 533 915 q 625 792 606 840 q 644 690 644 745 q 632 606 644 646 q 592 524 619 565 q 539 452 565 483 q 471 375 514 422 q 337 233 426 328 q 204 90 248 137 l 612 90 q 631 82 623 90 q 639 64 639 74 l 639 26 q 631 8 639 16 q 612 0 623 0 l 85 0 q 66 8 73 0 q 58 26 58 16 z "},"3":{"ha":739,"x_min":58,"x_max":653,"o":"m 65 110 q 58 127 58 117 q 66 143 58 137 l 104 175 q 142 168 126 191 q 163 146 149 159 q 204 115 178 133 q 269 84 230 96 q 349 72 307 72 q 490 119 432 72 q 549 245 549 166 q 486 375 549 323 q 302 428 424 428 l 225 428 q 199 458 199 428 l 199 492 q 205 515 199 509 q 228 522 212 522 l 304 522 q 468 570 411 522 q 525 690 525 618 q 472 819 525 770 q 343 867 420 867 q 161 777 241 867 q 145 767 155 768 q 125 774 136 766 l 92 800 q 84 818 83 808 q 92 836 84 829 q 103 849 96 841 q 137 879 111 858 q 190 916 162 900 q 259 945 217 932 q 343 958 301 958 q 550 889 471 958 q 629 704 629 819 q 585 570 629 630 q 486 485 541 510 l 486 481 q 540 450 513 469 q 593 403 567 431 q 636 337 620 376 q 653 256 653 298 q 569 63 653 139 q 345 -14 485 -14 q 253 -3 296 -14 q 181 19 209 7 q 127 52 154 32 q 90 83 100 73 q 65 110 79 94 z "},"4":{"ha":814,"x_min":22,"x_max":764,"o":"m 22 240 l 22 292 l 549 951 q 570 960 557 960 l 597 960 q 616 952 608 960 q 624 933 624 945 l 625 298 l 737 298 q 756 291 749 298 q 764 273 764 283 l 764 243 q 756 224 764 232 q 737 216 749 216 l 625 216 l 625 26 q 617 8 625 16 q 599 0 609 0 l 551 0 q 533 8 541 0 q 525 26 525 16 l 525 214 l 49 214 q 30 221 37 214 q 22 240 22 229 m 139 300 l 530 300 l 530 783 l 139 300 z "},"5":{"ha":740,"x_min":78,"x_max":684,"o":"m 93 102 q 78 127 79 118 q 90 149 78 136 q 106 164 96 153 q 122 179 117 174 q 157 178 143 197 q 178 153 165 166 q 217 120 192 139 q 281 88 242 100 q 363 75 319 75 q 478 110 427 75 q 555 195 529 144 q 581 302 581 246 q 525 446 581 389 q 363 503 469 503 l 151 503 q 120 518 132 503 q 109 551 109 533 l 109 918 q 116 937 109 929 q 135 945 123 945 l 554 945 q 573 937 566 945 q 581 918 581 929 l 581 878 q 573 859 581 867 q 554 851 566 851 l 201 851 l 201 596 l 363 596 q 601 519 518 596 q 684 304 684 442 q 591 79 684 172 q 361 -14 499 -14 q 93 102 189 -14 z "},"6":{"ha":754,"x_min":74,"x_max":704,"o":"m 74 382 q 92 528 74 458 q 140 652 111 598 q 210 753 169 705 q 292 836 251 802 q 379 899 332 869 q 460 946 425 928 q 530 977 496 963 q 561 962 551 985 l 576 929 q 551 889 588 901 q 495 863 530 882 q 413 812 460 845 q 323 740 366 779 q 244 649 281 701 q 195 543 208 596 q 205 550 199 546 q 234 565 212 554 q 280 584 256 576 q 338 599 303 592 q 406 606 372 606 q 518 584 465 606 q 613 525 572 563 q 679 429 654 486 q 704 304 704 372 q 662 145 704 218 q 550 29 621 72 q 397 -14 479 -14 q 252 17 315 -14 q 151 102 189 47 q 93 227 113 156 q 74 382 74 297 m 176 425 q 171 351 169 391 q 181 273 174 312 q 207 199 188 235 q 250 137 225 164 q 313 94 275 110 q 397 78 351 78 q 545 143 484 78 q 606 298 606 208 q 545 452 606 389 q 396 515 484 515 q 324 506 360 515 q 263 484 288 497 q 217 457 237 471 q 186 434 197 444 l 176 425 z "},"7":{"ha":658,"x_min":33,"x_max":644,"o":"m 33 878 l 33 918 q 41 937 33 928 q 60 945 50 945 l 618 945 q 636 937 628 945 q 644 918 644 928 l 644 908 l 239 36 q 193 0 222 0 l 153 0 q 134 8 142 0 q 126 26 126 16 l 126 41 l 514 851 l 60 851 q 41 859 50 851 q 33 878 33 867 z "},"8":{"ha":795,"x_min":86,"x_max":711,"o":"m 86 254 q 103 336 86 296 q 146 405 119 376 q 200 454 173 434 q 254 486 228 475 l 254 490 q 155 573 199 516 q 111 704 111 631 q 192 888 111 817 q 397 958 272 958 q 605 888 524 958 q 686 704 686 818 q 642 573 686 631 q 543 490 598 516 l 543 486 q 597 454 570 475 q 651 405 625 434 q 695 336 678 376 q 711 254 711 296 q 626 62 711 138 q 396 -14 541 -14 q 171 62 255 -14 q 86 254 86 138 m 191 244 q 251 118 191 166 q 396 69 311 69 q 548 116 488 69 q 607 244 607 163 q 550 368 607 313 q 399 432 494 422 q 247 368 303 422 q 191 244 191 313 m 214 700 q 260 588 214 632 q 399 534 306 543 q 537 588 491 543 q 583 700 583 632 q 530 826 583 778 q 393 875 476 875 q 266 826 317 875 q 214 700 214 777 z "},"9":{"ha":754,"x_min":50,"x_max":681,"o":"m 50 648 q 92 808 50 734 q 204 924 134 881 q 357 966 275 966 q 502 936 439 966 q 604 851 565 905 q 662 726 642 797 q 681 571 681 656 q 663 425 681 495 q 615 301 644 355 q 545 199 586 248 q 463 117 504 151 q 376 54 422 83 q 294 7 329 24 q 224 -24 258 -10 q 193 -9 203 -32 l 178 24 q 203 64 166 52 q 259 90 224 71 q 341 141 294 108 q 431 213 388 174 q 510 304 473 252 q 559 410 546 357 q 549 403 555 407 q 520 388 542 399 q 474 369 498 377 q 416 354 451 361 q 349 347 382 347 q 236 369 290 347 q 141 428 182 390 q 75 524 100 467 q 50 648 50 581 m 149 654 q 210 500 149 564 q 358 437 271 437 q 430 447 394 437 q 491 469 466 456 q 537 496 517 483 q 568 518 557 509 l 578 528 q 583 602 585 562 q 573 680 581 641 q 548 753 566 718 q 504 816 529 789 q 441 859 479 843 q 357 875 403 875 q 209 810 270 875 q 149 654 149 745 z "}," ":{"ha":308,"x_min":0,"x_max":0,"o":""},"!":{"ha":414,"x_min":127,"x_max":286,"o":"m 127 65 q 151 121 127 98 q 207 144 174 144 q 263 122 240 144 q 286 65 286 99 q 263 9 286 33 q 207 -14 240 -14 q 151 10 175 -14 q 127 65 127 33 m 146 787 l 146 946 q 154 964 146 956 q 172 972 162 972 l 241 972 q 260 964 252 972 q 268 946 268 956 l 268 790 l 241 400 q 232 385 240 392 q 215 378 224 378 l 199 378 q 182 385 190 378 q 172 400 174 392 l 146 787 z "},"\"":{"ha":426,"x_min":68,"x_max":376,"o":"m 68 722 l 68 946 q 76 964 68 956 q 94 972 84 972 l 142 972 q 163 962 156 972 q 167 937 171 951 l 127 717 q 118 702 125 709 q 103 696 111 696 l 94 696 q 76 704 84 696 q 68 722 68 712 m 278 722 l 278 946 q 286 964 278 956 q 304 972 294 972 l 351 972 q 373 962 366 972 q 376 937 380 951 l 338 717 q 328 702 336 709 q 313 696 320 696 l 304 696 q 286 704 294 696 q 278 722 278 712 z "},"#":{"ha":753,"x_min":58,"x_max":692,"o":"m 58 297 l 58 307 q 66 326 58 319 q 85 334 73 334 l 192 334 l 225 571 l 125 571 q 106 579 115 571 q 98 597 98 587 l 98 607 q 106 625 98 617 q 125 633 115 633 l 233 633 l 278 950 q 287 965 279 958 q 302 972 294 972 l 313 972 q 332 963 325 972 q 338 942 340 954 l 296 633 l 505 633 l 549 950 q 558 965 550 958 q 575 972 566 972 l 583 972 q 604 964 596 972 q 610 942 612 955 l 568 633 l 665 633 q 684 626 677 633 q 692 607 692 618 l 692 597 q 685 579 692 587 q 668 571 679 571 l 559 571 l 526 334 l 625 334 q 644 326 636 334 q 652 307 652 319 l 652 297 q 645 279 652 287 q 628 271 638 271 l 517 271 l 481 22 q 472 6 479 13 q 454 0 465 0 l 446 0 q 425 9 433 0 q 419 31 418 18 l 456 271 l 243 271 l 208 22 q 199 7 208 14 q 182 0 191 0 l 174 0 q 153 9 160 0 q 147 31 145 18 l 182 271 l 85 271 q 66 278 73 271 q 58 297 58 286 m 253 334 l 465 334 l 497 571 l 288 571 l 253 334 z "},"$":{"ha":728,"x_min":64,"x_max":673,"o":"m 66 115 q 64 118 66 115 q 64 129 62 121 q 72 146 66 136 q 84 162 75 150 q 98 178 94 174 q 111 189 103 183 q 126 193 118 195 q 142 184 134 192 q 162 166 149 177 q 202 137 175 156 q 265 103 229 118 q 339 82 302 87 l 339 443 q 238 489 280 467 q 161 541 196 511 q 105 607 125 570 q 78 689 85 644 q 75 739 75 705 q 84 797 75 767 q 114 859 93 827 q 164 917 134 891 q 239 962 193 943 q 339 985 284 980 l 339 1029 q 347 1048 339 1041 q 366 1055 355 1055 l 375 1055 q 393 1048 385 1055 q 400 1029 400 1041 l 400 985 q 506 963 454 981 q 583 930 558 946 l 608 916 q 618 907 614 913 q 624 891 622 902 q 616 868 625 881 q 608 856 614 864 q 601 844 603 847 q 594 835 599 841 q 587 828 590 829 q 580 824 585 826 q 572 822 576 821 q 563 824 568 823 q 551 829 557 826 q 540 836 551 829 q 515 850 529 842 q 484 865 502 857 q 443 881 465 873 q 400 890 421 888 l 399 530 q 493 487 454 507 q 568 439 532 466 q 626 384 604 413 q 661 318 648 355 q 673 236 673 281 q 593 65 673 135 q 399 -12 512 -5 l 399 -157 q 390 -175 399 -169 q 368 -182 381 -182 q 348 -175 357 -182 q 339 -157 339 -168 l 339 -12 q 241 7 288 -8 q 160 43 194 22 q 109 75 126 63 q 81 98 92 87 q 72 106 75 104 q 66 115 70 109 m 178 741 q 218 635 178 679 q 339 555 258 592 l 339 892 q 264 871 297 888 q 214 832 232 854 q 187 786 196 809 q 178 741 178 762 m 399 81 q 515 131 468 87 q 562 232 562 174 q 523 331 562 289 q 399 415 483 374 l 399 81 z "},"%":{"ha":937,"x_min":49,"x_max":863,"o":"m 103 667 q 76 694 103 667 q 49 800 49 722 q 103 933 49 879 q 236 987 157 987 q 369 933 313 987 q 424 800 424 878 q 369 667 424 722 q 236 612 313 612 q 103 667 158 612 m 127 800 q 159 723 127 754 q 236 692 190 692 q 311 723 279 692 q 342 800 342 755 q 310 874 342 843 q 236 905 279 905 q 159 874 191 905 q 127 800 127 844 m 178 37 l 654 958 q 677 972 663 972 l 700 972 q 723 960 715 972 q 724 935 731 948 l 244 14 q 221 0 237 0 l 201 0 q 178 12 186 0 q 178 37 171 24 m 542 39 q 515 66 542 39 q 488 172 488 94 q 542 305 488 251 q 675 359 597 359 q 807 305 752 359 q 863 172 863 250 q 807 39 863 94 q 675 -16 752 -16 q 542 39 597 -16 m 567 172 q 598 95 567 126 q 675 64 629 64 q 749 95 718 64 q 781 172 781 127 q 749 247 781 215 q 675 278 718 278 q 598 247 629 278 q 567 172 567 216 z "},"&":{"ha":924,"x_min":114,"x_max":895,"o":"m 114 241 q 127 323 114 284 q 160 391 140 363 q 207 446 179 419 q 258 488 235 472 q 307 519 280 503 l 307 522 l 273 558 q 200 656 226 608 q 176 761 174 703 q 192 841 176 802 q 236 913 207 880 q 314 966 265 946 q 422 986 362 986 q 594 924 531 986 q 657 772 657 863 q 452 505 657 633 l 681 277 q 736 524 736 390 q 743 550 736 545 q 768 555 750 555 l 802 555 q 810 555 806 555 q 817 552 814 554 q 821 550 819 551 q 825 546 823 549 q 827 541 826 543 q 828 536 827 540 q 828 532 828 533 q 828 528 828 531 l 828 524 q 806 362 828 444 q 746 211 785 280 l 879 78 q 893 60 889 67 q 894 41 897 53 q 878 14 891 28 l 861 -1 q 803 3 832 -28 l 685 125 q 382 -14 562 -14 q 236 22 298 -14 q 144 115 174 58 q 114 241 114 172 m 211 240 q 262 120 211 168 q 386 72 313 72 q 517 103 456 72 q 624 191 578 135 l 367 460 q 211 240 211 366 m 269 758 q 290 681 267 717 q 358 600 313 645 l 389 570 q 424 591 412 584 q 460 615 435 598 q 498 647 484 632 q 528 681 512 661 q 552 724 545 701 q 559 770 559 746 q 520 864 559 823 q 414 904 481 904 q 308 862 347 904 q 269 758 269 821 z "},"'":{"ha":216,"x_min":68,"x_max":167,"o":"m 68 722 l 68 946 q 76 964 68 956 q 94 972 84 972 l 142 972 q 163 962 156 972 q 167 937 171 951 l 127 717 q 118 702 125 709 q 103 696 111 696 l 94 696 q 76 704 84 696 q 68 722 68 712 z "},"(":{"ha":477,"x_min":81,"x_max":436,"o":"m 94 256 q 87 297 94 256 q 81 437 81 338 q 94 619 81 536 q 131 759 107 701 q 185 860 155 817 q 253 929 216 903 q 329 968 291 955 q 408 983 367 981 q 433 970 431 985 l 436 932 q 434 916 438 923 q 422 908 430 909 q 236 765 294 883 q 178 437 178 647 q 236 110 178 228 q 422 -33 294 -8 q 434 -41 430 -35 q 436 -57 438 -48 l 433 -94 q 408 -109 431 -111 q 329 -93 367 -106 q 253 -54 291 -80 q 185 15 216 -28 q 131 116 155 58 q 94 256 107 174 z "},")":{"ha":477,"x_min":41,"x_max":397,"o":"m 41 -57 q 44 -41 39 -48 q 56 -33 48 -35 q 242 110 184 -8 q 300 437 300 227 q 242 765 300 648 q 56 908 184 883 q 44 916 48 909 q 41 932 39 923 l 45 970 q 69 983 47 985 q 164 963 119 981 q 253 905 210 945 q 328 804 296 864 q 378 650 359 744 q 397 437 397 555 q 378 225 397 319 q 328 71 359 131 q 253 -30 296 11 q 164 -88 210 -71 q 69 -109 119 -106 q 45 -94 47 -111 l 41 -57 z "},"*":{"ha":455,"x_min":50,"x_max":405,"o":"m 60 840 q 50 857 52 846 q 53 876 47 868 q 58 884 55 879 q 64 892 62 889 q 80 903 69 900 q 98 900 90 906 l 195 832 l 192 947 q 200 965 192 958 q 218 972 208 972 l 236 972 q 254 965 246 972 q 262 947 262 958 l 260 833 l 353 903 q 372 905 362 907 q 389 895 382 903 l 399 879 q 402 860 404 870 q 392 843 401 849 l 285 775 l 393 707 q 405 690 402 701 q 401 671 407 679 l 392 656 q 374 644 386 647 q 354 647 363 642 l 260 715 l 262 603 q 254 585 262 593 q 236 576 246 576 l 218 576 q 200 585 208 576 q 192 603 192 593 l 195 717 l 102 650 q 82 646 94 644 q 65 659 71 649 l 56 672 q 52 693 50 682 q 62 710 54 704 l 167 775 l 60 840 z "},"+":{"ha":696,"x_min":57,"x_max":637,"o":"m 57 463 l 57 501 q 65 519 57 511 q 83 528 73 528 l 301 528 l 301 747 q 309 765 301 758 q 328 772 317 772 l 367 772 q 385 765 377 772 q 393 747 393 758 l 393 528 l 612 528 q 630 519 623 528 q 637 501 637 511 l 637 463 q 630 444 637 452 q 612 436 623 436 l 393 436 l 393 218 q 385 201 393 208 q 367 193 377 193 l 328 193 q 309 201 317 193 q 301 218 301 208 l 301 436 l 83 436 q 65 444 73 436 q 57 463 57 452 z "},",":{"ha":323,"x_min":75,"x_max":248,"o":"m 78 -221 q 75 -206 73 -216 q 86 -187 77 -196 q 172 -12 172 -110 q 155 -14 167 -14 q 100 10 123 -14 q 77 65 77 33 q 100 121 77 98 q 155 144 123 144 q 221 116 195 144 q 248 20 248 88 q 211 -128 248 -58 q 131 -237 174 -198 q 97 -240 112 -255 l 78 -221 z "},"-":{"ha":573,"x_min":115,"x_max":458,"o":"m 115 330 l 115 357 q 123 376 115 368 q 142 383 130 383 l 432 383 q 451 376 444 383 q 458 357 458 368 l 458 330 q 451 313 458 320 q 432 306 444 306 l 142 306 q 123 313 130 306 q 115 330 115 320 z "},".":{"ha":313,"x_min":78,"x_max":236,"o":"m 78 65 q 101 121 78 98 q 157 144 124 144 q 213 122 190 144 q 236 65 236 99 q 213 9 236 33 q 157 -14 190 -14 q 101 10 125 -14 q 78 65 78 33 z "},"/":{"ha":444,"x_min":56,"x_max":408,"o":"m 56 35 l 328 954 q 337 967 330 962 q 353 972 345 972 l 383 972 q 405 962 398 972 q 408 937 412 952 l 138 18 q 128 6 136 12 q 113 0 120 0 l 81 0 q 59 10 66 0 q 56 35 52 20 z "},":":{"ha":355,"x_min":98,"x_max":257,"o":"m 98 65 q 122 121 98 98 q 178 144 145 144 q 234 122 212 144 q 257 65 257 99 q 234 9 257 33 q 178 -14 211 -14 q 122 10 146 -14 q 98 65 98 33 m 98 490 q 122 547 98 524 q 178 570 145 570 q 234 547 212 570 q 257 490 257 524 q 234 434 257 458 q 178 411 211 411 q 122 435 146 411 q 98 490 98 458 z "},";":{"ha":359,"x_min":95,"x_max":268,"o":"m 98 -221 q 95 -206 93 -216 q 107 -187 98 -196 q 193 -12 193 -110 q 176 -14 188 -14 q 121 10 144 -14 q 97 65 97 33 q 120 121 97 98 q 176 144 144 144 q 242 116 216 144 q 268 20 268 88 q 231 -128 268 -58 q 151 -237 194 -198 q 118 -240 132 -254 l 98 -221 m 97 490 q 120 547 97 524 q 176 570 144 570 q 233 547 210 570 q 256 490 256 524 q 233 434 256 458 q 176 411 210 411 q 121 435 144 411 q 97 490 97 458 z "},"<":{"ha":610,"x_min":35,"x_max":559,"o":"m 35 315 l 35 322 q 39 335 35 328 q 49 346 43 342 l 521 640 q 547 642 534 648 q 559 618 559 635 l 559 568 q 545 542 559 551 l 182 319 l 545 106 q 559 79 559 97 l 559 29 q 547 5 559 12 q 521 7 534 -1 l 49 292 q 39 302 43 295 q 35 315 35 309 z "},"=":{"ha":708,"x_min":119,"x_max":587,"o":"m 119 221 l 119 264 q 127 282 119 275 q 146 290 134 290 l 561 290 q 580 282 572 290 q 587 264 587 275 l 587 221 q 580 202 587 210 q 561 195 572 195 l 146 195 q 127 202 134 195 q 119 221 119 210 m 119 514 l 119 555 q 127 574 119 566 q 146 582 134 582 l 561 582 q 580 574 572 582 q 587 555 587 566 l 587 514 q 580 495 587 503 q 561 488 572 488 l 146 488 q 127 495 134 488 q 119 514 119 503 z "},">":{"ha":610,"x_min":50,"x_max":575,"o":"m 50 29 l 50 79 q 65 106 50 98 l 428 319 l 65 542 q 50 568 50 552 l 50 618 q 63 642 50 635 q 89 640 75 648 l 561 346 q 571 335 566 342 q 575 322 575 328 l 575 315 q 571 302 575 309 q 561 292 566 295 l 89 7 q 63 5 75 -1 q 50 29 50 12 z "},"?":{"ha":640,"x_min":69,"x_max":566,"o":"m 69 828 q 69 864 53 842 q 79 877 73 869 q 109 907 85 886 q 158 944 132 928 q 230 973 185 960 q 323 986 275 986 q 499 928 432 986 q 566 774 566 869 q 549 695 566 731 q 509 637 533 660 q 456 593 484 615 q 403 553 427 570 q 362 513 378 536 q 346 463 346 489 l 346 406 q 337 385 346 392 q 317 378 328 378 l 279 378 q 261 385 269 378 q 253 404 253 393 l 253 463 q 264 526 253 497 q 294 573 276 554 q 335 609 313 593 q 379 642 357 626 q 420 676 401 659 q 450 720 438 694 q 461 778 461 746 q 425 865 461 829 q 323 900 389 900 q 289 898 305 900 q 257 891 272 896 q 230 882 242 886 q 206 870 218 878 q 186 857 194 862 q 169 843 179 852 q 155 829 159 833 q 142 816 151 826 q 132 806 133 806 q 96 804 115 788 l 69 828 m 216 65 q 240 121 216 98 q 296 144 263 144 q 352 122 330 144 q 375 65 375 99 q 352 9 375 33 q 296 -14 329 -14 q 240 10 264 -14 q 216 65 216 33 z "},"@":{"ha":1362,"x_min":60,"x_max":1284,"o":"m 60 310 q 105 582 60 457 q 233 796 151 707 q 435 936 315 886 q 699 986 555 986 q 947 942 836 986 q 1132 819 1058 897 q 1245 633 1205 740 q 1284 400 1284 526 q 1276 287 1284 342 q 1245 176 1267 231 q 1192 79 1223 120 q 1108 12 1160 38 q 994 -14 1057 -14 q 887 16 927 -14 q 835 94 848 46 l 823 94 q 754 17 800 47 q 648 -14 709 -14 q 474 67 542 -14 q 406 279 406 148 q 474 492 406 415 q 653 570 543 570 q 712 562 684 570 q 758 544 740 555 q 788 522 775 533 q 807 503 801 511 l 812 496 q 816 511 814 500 q 820 525 819 522 q 823 535 821 528 q 828 545 825 543 q 835 550 831 547 q 846 554 840 553 q 860 555 852 555 l 873 555 q 892 547 884 555 q 900 529 900 539 l 900 233 q 912 130 900 168 q 946 78 925 92 q 1000 64 967 64 q 1141 154 1084 64 q 1198 400 1198 245 q 1178 563 1198 486 q 1117 702 1158 639 q 1016 811 1076 766 q 875 883 957 857 q 696 908 793 908 q 296 747 444 908 q 147 310 147 587 q 247 -20 147 119 q 514 -232 347 -160 q 531 -245 529 -239 q 526 -267 533 -252 l 511 -304 q 484 -315 503 -324 q 175 -71 291 -234 q 60 310 60 92 m 494 278 q 542 131 494 184 q 657 78 589 78 q 757 115 720 78 q 807 208 793 153 l 807 406 q 801 414 805 409 q 784 433 798 419 q 755 456 771 446 q 714 475 740 467 q 659 484 688 484 q 540 429 586 484 q 494 278 494 375 z "},"A":{"ha":920,"x_min":5,"x_max":913,"o":"m 8 36 l 431 971 q 454 986 438 986 l 468 986 q 492 971 484 986 l 911 36 q 913 23 913 29 q 910 11 913 16 q 888 0 903 0 l 832 0 q 808 16 814 0 l 705 244 l 212 244 l 111 16 q 87 0 105 0 l 32 0 q 9 11 16 0 q 5 24 5 17 q 8 36 5 30 m 252 330 l 668 330 q 567 558 634 406 q 465 786 499 711 l 454 786 l 252 330 z "},"B":{"ha":868,"x_min":142,"x_max":787,"o":"m 142 26 l 142 946 q 149 965 142 957 q 168 972 157 972 l 472 972 q 677 900 598 972 q 757 717 757 827 q 717 585 757 643 q 621 494 677 526 q 678 463 651 481 q 731 418 705 445 q 772 352 757 391 q 787 268 787 313 q 703 75 787 151 q 485 0 618 0 l 168 0 q 149 8 157 0 q 142 26 142 16 m 243 93 l 496 93 q 621 143 572 93 q 671 269 671 194 q 613 391 671 342 q 472 440 555 440 l 243 440 l 243 93 m 245 536 l 472 536 q 594 586 550 536 q 639 710 639 635 q 595 831 639 786 q 472 876 551 876 l 245 876 l 245 536 z "},"C":{"ha":981,"x_min":71,"x_max":918,"o":"m 138 233 q 104 291 138 233 q 71 485 71 348 q 138 737 71 622 q 320 919 205 852 q 572 986 435 986 q 753 954 673 986 q 908 857 833 921 q 917 838 916 849 q 909 818 918 826 l 872 781 q 836 782 857 762 q 711 858 781 830 q 571 886 640 886 q 418 854 490 886 q 295 767 346 821 q 213 639 243 713 q 183 486 183 566 q 234 289 183 380 q 374 142 284 197 q 571 87 464 87 q 652 95 614 87 q 723 120 689 103 q 779 151 756 136 q 836 192 802 166 q 869 196 854 206 l 911 158 q 918 142 918 152 q 909 121 918 129 q 572 -14 771 -14 q 320 53 435 -14 q 138 233 205 119 z "},"D":{"ha":1037,"x_min":142,"x_max":965,"o":"m 142 26 l 142 946 q 149 964 142 956 q 167 972 157 972 l 478 972 q 667 934 576 972 q 822 830 757 895 q 926 675 888 765 q 965 488 965 586 q 926 298 965 389 q 822 142 888 208 q 667 39 757 77 q 478 0 577 0 l 167 0 q 149 8 157 0 q 142 26 142 16 m 248 96 l 456 96 q 738 206 627 96 q 848 488 848 316 q 738 768 848 659 q 456 878 627 878 l 248 878 l 248 96 z "},"E":{"ha":822,"x_min":142,"x_max":742,"o":"m 142 26 l 142 946 q 149 965 142 957 q 168 972 157 972 l 715 972 q 734 965 727 972 q 742 946 742 957 l 742 905 q 734 887 742 895 q 715 879 727 879 l 249 879 l 249 541 l 647 541 q 665 532 657 541 q 673 514 673 524 l 673 473 q 666 454 673 462 q 647 447 658 447 l 249 447 l 249 93 l 715 93 q 734 85 727 93 q 742 66 742 77 l 742 26 q 734 8 742 16 q 715 0 727 0 l 168 0 q 149 8 157 0 q 142 26 142 16 z "},"F":{"ha":790,"x_min":142,"x_max":742,"o":"m 142 26 l 142 946 q 149 965 142 957 q 168 972 157 972 l 715 972 q 734 965 727 972 q 742 946 742 957 l 742 905 q 734 887 742 895 q 715 879 727 879 l 249 879 l 249 498 l 647 498 q 665 490 657 498 q 673 472 673 482 l 673 432 q 665 414 673 422 q 647 406 657 406 l 249 406 l 249 26 q 241 8 249 16 q 222 0 233 0 l 168 0 q 149 8 157 0 q 142 26 142 16 z "},"G":{"ha":1017,"x_min":71,"x_max":926,"o":"m 138 233 q 104 291 138 233 q 71 485 71 348 q 138 737 71 622 q 320 919 205 852 q 572 986 435 986 q 753 954 673 986 q 908 857 833 921 q 917 838 916 849 q 909 818 918 826 l 871 779 q 854 770 861 769 q 835 781 847 770 q 709 859 780 829 q 571 889 639 889 q 418 857 490 889 q 295 770 346 825 q 214 643 244 716 q 184 490 184 570 q 235 292 184 385 q 374 144 285 200 q 571 89 464 89 q 701 103 639 89 q 792 133 764 118 l 821 147 l 821 342 l 661 342 q 642 349 650 342 q 635 367 635 357 l 635 418 q 642 437 635 429 q 661 444 650 444 l 901 444 q 919 436 911 444 q 926 418 926 428 l 926 100 q 916 78 926 86 q 899 68 909 75 q 853 46 888 62 q 780 18 818 31 q 686 -4 743 6 q 572 -14 629 -14 q 320 53 435 -14 q 138 233 205 119 z "},"H":{"ha":1061,"x_min":142,"x_max":920,"o":"m 142 26 l 142 946 q 150 964 142 956 q 168 972 158 972 l 222 972 q 241 965 234 972 q 249 946 249 957 l 249 541 l 812 541 l 812 946 q 820 965 812 957 q 839 972 827 972 l 893 972 q 911 964 903 972 q 920 946 920 956 l 920 26 q 911 8 920 16 q 893 0 903 0 l 839 0 q 820 8 827 0 q 812 26 812 16 l 812 447 l 249 447 l 249 26 q 241 8 249 16 q 222 0 234 0 l 168 0 q 150 8 158 0 q 142 26 142 16 z "},"I":{"ha":391,"x_min":142,"x_max":250,"o":"m 142 26 l 142 946 q 150 964 142 956 q 168 972 158 972 l 224 972 q 242 964 234 972 q 250 946 250 956 l 250 26 q 242 8 250 16 q 224 0 234 0 l 168 0 q 150 8 158 0 q 142 26 142 16 z "},"J":{"ha":562,"x_min":-33,"x_max":463,"o":"m -28 89 q -33 105 -33 97 q -25 123 -33 115 l 4 157 q 24 168 15 167 q 38 166 33 170 q 52 153 43 162 q 186 79 117 79 q 248 92 218 79 q 302 128 277 104 q 341 193 326 152 q 355 288 355 235 l 355 946 q 363 965 355 957 q 382 972 370 972 l 436 972 q 455 965 448 972 q 463 946 463 957 l 463 290 q 385 67 463 148 q 183 -14 308 -14 q -28 89 56 -14 z "},"K":{"ha":858,"x_min":142,"x_max":819,"o":"m 142 33 l 142 939 q 151 963 142 953 q 175 972 161 972 l 215 972 q 239 962 229 972 q 249 939 249 952 l 249 546 l 682 958 q 708 972 694 972 l 777 972 q 803 956 796 972 q 793 924 809 939 l 354 514 l 814 43 q 819 25 819 35 q 812 9 819 17 q 790 0 804 0 l 720 0 q 705 3 713 0 q 694 9 696 6 l 249 475 l 249 33 q 239 10 249 20 q 215 0 229 0 l 175 0 q 151 9 161 0 q 142 33 142 19 z "},"L":{"ha":682,"x_min":142,"x_max":675,"o":"m 142 26 l 142 946 q 149 965 142 957 q 168 972 157 972 l 222 972 q 241 964 233 972 q 249 946 249 956 l 249 93 l 648 93 q 667 85 660 93 q 675 66 675 77 l 675 26 q 667 8 675 16 q 648 0 660 0 l 168 0 q 149 8 157 0 q 142 26 142 16 z "},"M":{"ha":1197,"x_min":71,"x_max":1126,"o":"m 72 33 l 252 966 q 261 980 254 975 q 277 986 269 986 l 298 986 q 313 982 306 986 q 322 971 320 977 l 597 205 l 604 205 l 875 971 q 884 982 877 977 q 899 986 891 986 l 921 986 q 937 980 929 986 q 946 966 944 975 l 1125 33 q 1126 24 1126 28 q 1122 9 1126 16 q 1100 0 1115 0 l 1044 0 q 1029 6 1036 0 q 1019 20 1021 12 l 896 734 l 890 734 l 635 1 q 625 -9 633 -5 q 611 -14 618 -14 l 586 -14 q 572 -9 579 -14 q 562 1 564 -5 l 304 734 l 298 734 l 178 20 q 169 6 176 12 q 153 0 161 0 l 97 0 q 75 9 81 0 q 71 24 71 16 q 72 33 71 28 z "},"N":{"ha":1075,"x_min":142,"x_max":933,"o":"m 142 26 l 142 961 q 150 979 142 971 q 168 986 158 986 l 203 986 l 829 205 l 832 205 l 832 946 q 840 965 832 957 q 859 972 847 972 l 907 972 q 925 964 917 972 q 933 946 933 956 l 933 11 q 925 -6 933 1 q 907 -14 917 -14 l 882 -14 l 244 782 l 243 782 l 243 26 q 235 8 243 16 q 216 0 228 0 l 168 0 q 150 8 158 0 q 142 26 142 16 z "},"O":{"ha":1140,"x_min":71,"x_max":1069,"o":"m 71 485 q 110 680 71 587 q 216 840 149 773 q 375 947 282 907 q 570 986 467 986 q 765 947 672 986 q 924 840 857 907 q 1030 680 991 773 q 1069 485 1069 587 q 1030 290 1069 382 q 924 131 991 197 q 765 25 857 64 q 570 -14 672 -14 q 318 53 433 -14 q 137 233 203 119 q 71 485 71 348 m 222 687 q 195 640 222 687 q 168 485 168 593 q 222 284 168 376 q 369 137 276 191 q 570 83 461 83 q 771 137 678 83 q 918 284 864 191 q 972 485 972 376 q 918 687 972 593 q 771 834 864 780 q 570 889 678 889 q 369 834 461 889 q 222 687 276 780 z "},"P":{"ha":827,"x_min":142,"x_max":786,"o":"m 142 26 l 142 946 q 149 965 142 957 q 168 972 157 972 l 475 972 q 694 882 603 972 q 786 665 786 791 q 695 445 786 536 q 476 353 604 353 l 248 353 l 248 26 q 239 8 248 16 q 221 0 231 0 l 168 0 q 149 8 157 0 q 142 26 142 16 m 248 456 l 468 456 q 616 517 554 456 q 679 668 679 579 q 616 809 679 751 q 468 867 554 867 l 248 867 l 248 456 z "},"Q":{"ha":1141,"x_min":71,"x_max":1069,"o":"m 71 485 q 110 680 71 587 q 216 840 149 773 q 375 947 282 907 q 570 986 467 986 q 765 947 672 986 q 924 840 857 907 q 1030 680 991 773 q 1069 485 1069 587 q 988 210 1069 333 q 774 28 907 87 l 936 -233 q 938 -262 945 -248 q 914 -275 931 -275 l 844 -275 q 822 -261 830 -275 l 671 -5 q 570 -14 625 -14 q 318 53 433 -14 q 137 233 203 119 q 71 485 71 348 m 222 687 q 195 640 222 687 q 168 485 168 593 q 222 284 168 376 q 369 137 276 191 q 570 83 461 83 q 771 137 678 83 q 918 284 864 191 q 972 485 972 376 q 918 687 972 593 q 771 834 864 780 q 570 889 678 889 q 369 834 461 889 q 222 687 276 780 z "},"R":{"ha":918,"x_min":142,"x_max":831,"o":"m 142 26 l 142 946 q 149 965 142 957 q 168 972 157 972 l 528 972 q 742 886 653 972 q 831 676 831 800 q 774 507 831 583 q 625 393 718 431 l 815 40 q 815 13 823 26 q 791 0 808 0 l 721 0 q 699 12 705 0 l 514 380 l 249 380 l 249 26 q 241 8 249 16 q 222 0 233 0 l 168 0 q 149 8 157 0 q 142 26 142 16 m 252 472 l 521 472 q 662 531 602 472 q 721 675 721 590 q 661 812 721 754 q 521 871 602 871 l 252 871 l 252 472 z "},"S":{"ha":740,"x_min":72,"x_max":681,"o":"m 72 125 q 79 146 72 134 q 90 159 83 150 q 100 172 96 168 q 130 193 115 193 l 149 184 q 383 79 271 79 q 517 124 465 79 q 570 232 570 169 q 512 350 570 300 q 326 452 454 399 q 223 503 263 479 q 148 561 182 527 q 98 638 113 594 q 82 739 82 682 q 91 801 82 769 q 123 867 100 833 q 178 927 145 901 q 262 969 210 953 q 378 986 315 986 q 497 968 438 986 q 586 933 557 951 l 615 916 q 625 907 621 913 q 631 891 629 902 q 624 868 633 881 q 615 855 621 864 q 607 842 610 846 q 579 823 595 823 q 558 829 570 823 l 551 833 q 538 842 545 838 q 519 852 531 846 q 496 863 507 858 q 469 874 484 869 q 439 884 454 880 q 408 890 425 888 q 376 893 392 893 q 285 878 324 893 q 225 838 245 863 q 194 789 204 814 q 184 741 184 764 q 231 629 184 675 q 372 545 278 584 q 477 498 435 519 q 561 450 519 477 q 627 392 603 422 q 666 323 651 362 q 681 236 681 283 q 593 58 681 130 q 380 -14 505 -14 q 270 1 323 -14 q 177 37 216 15 q 120 73 139 59 q 87 98 100 87 q 76 109 79 105 q 72 125 72 114 z "},"T":{"ha":663,"x_min":11,"x_max":653,"o":"m 11 905 l 11 946 q 18 965 11 957 q 37 972 26 972 l 627 972 q 646 965 638 972 q 653 946 653 957 l 653 905 q 646 887 653 895 q 627 879 638 879 l 385 879 l 385 26 q 376 8 385 16 q 358 0 368 0 l 306 0 q 288 8 296 0 q 279 26 279 16 l 279 879 l 37 879 q 18 887 26 879 q 11 905 11 895 z "},"U":{"ha":994,"x_min":129,"x_max":865,"o":"m 129 358 l 129 946 q 137 964 129 956 q 155 972 145 972 l 208 972 q 227 965 220 972 q 235 946 235 957 l 235 367 q 306 165 235 245 q 496 85 376 85 q 688 164 616 85 q 760 364 760 243 l 760 946 q 767 965 760 957 q 786 972 774 972 l 839 972 q 857 964 849 972 q 865 946 865 956 l 865 358 q 762 92 865 198 q 496 -14 659 -14 q 304 35 389 -14 q 175 169 220 84 q 129 358 129 253 z "},"V":{"ha":922,"x_min":7,"x_max":916,"o":"m 9 936 q 7 948 7 942 q 11 961 7 955 q 33 972 18 972 l 89 972 q 113 957 106 972 l 458 179 l 464 179 l 810 957 q 819 967 812 962 q 833 972 826 972 l 889 972 q 911 961 905 972 q 916 948 916 955 q 913 936 916 942 l 490 1 q 467 -14 483 -14 l 453 -14 q 429 1 437 -14 l 9 936 z "},"W":{"ha":1253,"x_min":50,"x_max":1203,"o":"m 52 939 q 50 949 50 944 q 54 963 50 957 q 77 972 61 972 l 135 972 q 151 966 143 972 q 160 953 158 960 l 353 233 l 358 233 l 590 971 q 614 986 595 986 l 639 986 q 654 982 647 986 q 663 971 661 977 l 899 233 l 904 233 l 1093 953 q 1103 966 1095 960 q 1118 972 1110 972 l 1177 972 q 1199 963 1192 972 q 1203 949 1204 957 q 1202 939 1203 944 l 939 5 q 929 -8 937 -3 q 914 -14 922 -14 l 892 -14 q 868 1 876 -14 l 628 753 l 621 753 l 385 1 q 361 -14 377 -14 l 339 -14 q 323 -8 331 -14 q 314 5 316 -3 l 52 939 z "},"X":{"ha":809,"x_min":51,"x_max":757,"o":"m 54 12 q 51 24 51 18 q 56 39 51 31 l 338 498 l 66 933 q 65 960 58 947 q 90 972 73 972 l 165 972 q 189 960 182 972 l 403 591 l 404 591 l 621 960 q 644 972 628 972 l 720 972 q 744 960 737 972 q 743 933 751 947 l 472 498 l 753 39 q 757 24 757 31 q 754 12 757 18 q 729 0 747 0 l 665 0 q 642 12 648 0 l 404 406 l 403 406 l 168 12 q 144 0 161 0 l 81 0 q 54 12 62 0 z "},"Y":{"ha":785,"x_min":-1,"x_max":787,"o":"m 1 959 q 25 972 9 972 l 90 972 q 113 960 103 972 l 393 572 l 673 960 q 696 972 683 972 l 761 972 q 784 959 777 972 q 787 946 787 953 q 783 932 787 939 l 444 469 l 444 26 q 436 8 444 16 q 418 0 428 0 l 364 0 q 345 8 353 0 q 338 26 338 16 l 338 468 l 3 932 q -1 946 -1 939 q 1 959 -1 953 z "},"Z":{"ha":741,"x_min":41,"x_max":697,"o":"m 41 26 l 41 52 l 546 871 l 546 875 l 109 875 q 90 883 98 875 q 82 901 82 891 l 82 946 q 90 964 82 956 q 109 972 98 972 l 671 972 q 689 964 681 972 q 697 946 697 956 l 697 928 l 184 98 l 184 97 l 643 97 q 662 89 654 97 q 669 71 669 81 l 669 26 q 662 8 669 16 q 643 0 654 0 l 68 0 q 50 8 58 0 q 41 26 41 16 z "},"[":{"ha":454,"x_min":109,"x_max":419,"o":"m 109 -390 l 109 946 q 117 964 109 956 q 135 972 125 972 l 393 972 q 411 964 404 972 q 419 946 419 956 l 419 911 q 412 892 419 899 q 393 885 404 885 l 203 885 l 203 -329 l 393 -329 q 411 -336 404 -329 q 419 -354 419 -344 l 419 -390 q 411 -408 419 -400 q 393 -416 404 -416 l 135 -416 q 117 -408 125 -416 q 109 -390 109 -400 z "},"\\":{"ha":458,"x_min":36,"x_max":403,"o":"m 36 937 q 39 962 32 952 q 61 972 46 972 l 106 972 q 121 967 114 972 q 131 954 129 962 l 403 35 q 399 10 407 20 q 378 0 392 0 l 332 0 q 317 6 324 0 q 307 18 309 12 l 36 937 z "},"]":{"ha":454,"x_min":35,"x_max":346,"o":"m 35 -354 q 43 -336 35 -344 q 61 -329 51 -329 l 252 -329 l 252 885 l 61 885 q 42 892 50 885 q 35 911 35 899 l 35 946 q 43 964 35 956 q 61 972 51 972 l 319 972 q 338 964 330 972 q 346 946 346 956 l 346 -390 q 338 -408 346 -400 q 319 -416 330 -416 l 61 -416 q 43 -408 51 -416 q 35 -390 35 -400 l 35 -354 z "},"^":{"ha":728,"x_min":60,"x_max":668,"o":"m 83 553 q 60 565 66 553 q 61 591 53 578 l 340 978 q 351 987 344 983 q 364 991 358 991 l 371 991 q 384 987 377 991 q 395 978 391 983 l 667 591 q 668 565 675 578 q 644 553 661 553 l 599 553 q 572 568 582 553 l 366 861 l 155 568 q 129 553 144 553 l 83 553 z "},"_":{"ha":537,"x_min":35,"x_max":503,"o":"m 35 -40 q 42 -21 35 -28 q 61 -14 50 -14 l 476 -14 q 495 -21 488 -14 q 503 -40 503 -28 l 503 -62 q 495 -80 503 -73 q 476 -87 488 -87 l 61 -87 q 42 -80 50 -87 q 35 -62 35 -73 l 35 -40 z "},"`":{"ha":419,"x_min":95,"x_max":376,"o":"m 106 869 q 95 881 98 872 q 97 899 93 890 l 122 949 q 140 957 127 957 q 158 953 153 958 l 367 836 q 376 825 374 833 q 375 810 378 818 l 361 779 q 350 771 357 771 q 329 777 344 770 l 106 869 z "},"a":{"ha":583,"x_min":58,"x_max":489,"o":"m 58 168 q 117 301 58 250 q 281 353 176 353 q 337 348 307 353 q 382 339 366 344 l 399 335 q 399 347 399 341 q 382 452 399 420 q 309 485 365 486 q 142 454 222 485 q 115 468 122 447 l 104 503 q 119 533 98 524 q 150 545 128 537 q 218 561 171 552 q 313 570 266 570 q 452 516 415 570 q 489 335 489 463 l 489 26 q 481 8 489 16 q 463 0 473 0 l 436 0 q 420 5 425 0 q 412 21 416 10 l 401 58 q 229 -14 330 -14 q 107 36 155 -14 q 58 168 58 86 m 147 168 q 174 97 147 125 q 244 69 200 69 q 335 93 292 69 q 397 147 377 117 l 397 257 q 281 279 357 279 q 184 250 220 279 q 147 168 147 221 z "},"b":{"ha":669,"x_min":100,"x_max":611,"o":"m 100 26 l 100 946 q 108 964 100 956 q 126 972 116 972 l 170 972 q 188 964 180 972 q 196 946 196 956 l 196 533 q 214 543 202 537 q 265 559 227 549 q 345 570 304 570 q 539 487 467 570 q 611 279 611 405 q 537 73 611 159 q 358 -14 464 -14 q 300 -6 329 -14 q 252 12 272 1 q 217 34 233 23 q 195 52 202 45 l 187 60 l 179 22 q 171 6 177 13 q 155 0 164 0 l 126 0 q 108 8 116 0 q 100 26 100 16 m 197 165 q 203 156 199 162 q 222 134 208 149 q 252 106 236 118 q 295 84 269 94 q 349 74 321 74 q 468 134 422 74 q 514 278 514 193 q 467 420 514 365 q 332 476 419 476 q 264 468 298 476 q 214 452 231 460 l 197 443 l 197 165 z "},"c":{"ha":612,"x_min":57,"x_max":558,"o":"m 57 277 q 97 425 57 357 q 203 531 137 492 q 343 570 269 570 q 542 472 465 570 q 547 452 549 463 q 536 433 546 441 l 510 411 q 499 403 504 406 q 490 401 494 400 q 483 404 485 403 q 476 410 481 405 q 469 416 470 416 q 342 475 418 475 q 210 418 263 475 q 157 278 157 361 q 210 136 157 194 q 340 78 262 78 q 373 80 358 78 q 401 87 388 82 q 423 96 414 93 q 443 109 431 100 q 459 122 454 119 q 474 137 463 125 q 488 150 486 148 q 509 162 502 162 q 529 153 516 161 l 545 142 q 557 123 555 134 q 558 117 558 120 q 554 103 558 110 q 466 19 522 51 q 342 -14 410 -14 q 141 70 224 -14 q 57 277 57 153 z "},"d":{"ha":669,"x_min":58,"x_max":570,"o":"m 58 279 q 131 487 58 405 q 325 570 203 570 q 402 561 366 570 q 456 543 439 551 l 473 533 l 473 946 q 481 964 473 956 q 500 972 490 972 l 543 972 q 562 964 553 972 q 570 946 570 956 l 570 26 q 562 8 570 16 q 543 0 553 0 l 514 0 q 499 6 505 0 q 490 22 492 13 l 482 60 q 474 52 479 57 q 452 34 469 47 q 417 12 435 22 q 369 -6 398 2 q 311 -14 340 -14 q 132 73 205 -14 q 58 279 58 159 m 155 278 q 201 134 155 193 q 321 74 247 74 q 374 83 349 74 q 417 106 400 93 q 447 133 434 119 q 467 156 460 146 l 472 165 l 472 443 q 454 452 465 446 q 407 467 442 458 q 338 476 372 476 q 203 420 250 476 q 155 278 155 365 z "},"e":{"ha":634,"x_min":58,"x_max":582,"o":"m 58 278 q 133 485 58 400 q 330 570 208 570 q 511 497 439 570 q 582 315 582 425 q 579 278 582 297 q 571 261 578 268 q 554 254 564 254 l 154 254 q 213 129 158 183 q 340 74 268 74 q 478 115 411 74 q 485 119 480 117 q 491 122 490 121 q 496 125 492 123 q 501 127 499 127 q 505 127 503 127 q 509 126 507 127 q 513 123 511 125 q 517 118 515 121 q 529 102 521 113 q 541 86 536 92 q 549 70 549 78 q 534 50 549 61 q 449 6 504 26 q 330 -14 395 -14 q 133 71 208 -14 q 58 278 58 155 m 155 332 l 486 332 q 438 439 483 393 q 330 485 393 485 q 212 441 261 485 q 155 332 163 397 z "},"f":{"ha":444,"x_min":32,"x_max":518,"o":"m 32 498 l 32 529 q 39 548 32 541 q 58 555 47 555 l 143 555 l 143 750 q 202 926 143 866 q 355 986 261 986 q 509 929 448 986 q 518 911 518 921 q 514 897 518 905 l 492 861 q 456 860 479 841 q 354 900 401 900 q 271 863 302 900 q 239 750 239 826 l 239 555 l 400 555 q 419 548 412 555 q 427 529 427 541 l 427 498 q 419 480 427 488 q 400 472 412 472 l 239 472 l 239 26 q 231 8 239 16 q 212 0 222 0 l 170 0 q 151 8 159 0 q 143 26 143 16 l 143 472 l 58 472 q 39 480 47 472 q 32 498 32 488 z "},"g":{"ha":637,"x_min":43,"x_max":618,"o":"m 43 26 q 52 83 43 56 q 76 129 62 111 q 103 160 90 146 q 127 180 117 174 l 136 186 q 124 204 132 192 q 104 252 117 216 q 92 325 92 288 q 156 497 92 425 q 326 570 221 570 l 561 570 q 580 562 572 570 q 587 543 587 555 l 587 519 q 583 504 587 511 q 572 496 579 496 l 497 481 q 504 475 500 479 q 519 457 508 471 q 538 427 530 444 q 553 383 546 411 q 559 325 559 355 q 495 158 559 227 q 326 89 431 89 q 254 97 287 89 q 208 115 221 106 l 195 123 q 188 120 192 122 q 173 110 184 118 q 155 94 163 102 q 140 70 146 85 q 134 40 134 56 q 153 -8 134 12 q 210 -28 173 -28 l 410 -28 q 560 -73 502 -28 q 618 -205 618 -119 q 535 -363 618 -295 q 330 -431 453 -431 q 211 -414 263 -431 q 127 -369 158 -397 q 80 -307 96 -340 q 64 -239 64 -274 q 144 -110 64 -158 l 144 -106 q 75 -63 108 -96 q 43 26 43 -31 m 163 -225 q 210 -308 163 -275 q 329 -340 258 -340 q 458 -303 401 -340 q 515 -208 515 -266 q 512 -186 515 -198 q 499 -157 509 -174 q 467 -129 490 -140 q 410 -118 444 -118 l 256 -118 q 245 -121 252 -119 q 223 -132 239 -123 q 195 -152 208 -141 q 173 -182 183 -163 q 163 -225 163 -202 m 223 440 q 202 418 223 440 q 182 328 182 396 q 223 216 182 259 q 328 172 264 172 q 428 215 390 172 q 467 328 467 258 q 428 440 467 397 q 328 484 390 484 q 223 440 264 484 z "},"h":{"ha":688,"x_min":100,"x_max":597,"o":"m 100 26 l 100 946 q 108 964 100 956 q 126 972 116 972 l 170 972 q 188 964 180 972 q 196 946 196 956 l 196 496 q 204 504 199 498 q 229 522 210 509 q 268 544 248 534 q 319 562 288 553 q 382 570 351 570 q 542 505 486 570 q 597 319 597 441 l 597 26 q 589 8 597 16 q 571 0 581 0 l 526 0 q 508 8 516 0 q 500 26 500 16 l 500 319 q 467 437 500 397 q 375 476 435 476 q 316 468 345 476 q 266 449 287 460 q 229 426 245 437 q 204 407 212 414 l 196 399 l 196 26 q 188 8 196 16 q 170 0 180 0 l 126 0 q 108 8 116 0 q 100 26 100 16 z "},"i":{"ha":293,"x_min":79,"x_max":211,"o":"m 79 878 q 98 925 79 905 q 144 945 117 945 q 192 925 172 945 q 211 878 211 905 q 192 831 211 850 q 144 812 172 812 q 98 831 117 812 q 79 878 79 850 m 98 26 l 98 529 q 106 547 98 539 q 125 555 115 555 l 168 555 q 186 547 178 555 q 195 529 195 539 l 195 26 q 186 8 195 16 q 168 0 178 0 l 125 0 q 106 8 115 0 q 98 26 98 16 z "},"j":{"ha":296,"x_min":-179,"x_max":214,"o":"m -175 -342 l -153 -306 q -117 -304 -140 -286 q -69 -331 -99 -318 q -16 -345 -39 -345 q 68 -308 36 -345 q 100 -195 100 -271 l 100 529 q 107 548 100 541 q 126 555 115 555 l 170 555 q 188 548 180 555 q 196 529 196 541 l 196 -195 q 137 -371 196 -311 q -17 -431 77 -431 q -170 -374 -109 -431 q -179 -355 -179 -366 q -175 -342 -179 -349 m 82 878 q 101 925 82 905 q 147 945 120 945 q 194 925 175 945 q 214 878 214 905 q 194 831 214 850 q 147 812 175 812 q 101 831 120 812 q 82 878 82 850 z "},"k":{"ha":622,"x_min":100,"x_max":603,"o":"m 100 26 l 100 946 q 108 964 100 956 q 126 972 116 972 l 170 972 q 188 964 180 972 q 196 946 196 956 l 196 345 l 432 539 q 465 555 450 555 l 541 555 q 559 541 557 555 q 553 521 562 527 l 289 310 l 596 35 q 603 21 603 29 q 602 14 604 18 q 582 0 598 0 l 505 0 q 478 11 492 0 l 196 279 l 196 26 q 188 8 196 16 q 170 0 180 0 l 126 0 q 108 8 116 0 q 100 26 100 16 z "},"l":{"ha":296,"x_min":100,"x_max":196,"o":"m 100 26 l 100 946 q 108 964 100 956 q 126 972 116 972 l 170 972 q 188 964 180 972 q 196 946 196 956 l 196 26 q 188 8 196 16 q 170 0 180 0 l 126 0 q 108 8 116 0 q 100 26 100 16 z "},"m":{"ha":1058,"x_min":98,"x_max":966,"o":"m 98 26 l 98 529 q 106 547 98 539 q 125 555 115 555 l 151 555 q 174 539 170 555 l 186 496 q 194 504 189 498 q 216 522 199 509 q 253 544 234 534 q 303 562 273 553 q 367 570 334 570 q 545 479 489 570 l 549 483 q 558 491 553 487 q 571 501 563 495 q 588 513 580 507 q 609 527 597 519 q 632 539 621 534 q 659 551 644 545 q 688 561 673 557 q 719 567 703 565 q 751 570 735 570 q 966 319 966 570 l 966 26 q 958 8 966 16 q 940 0 950 0 l 896 0 q 878 8 886 0 q 869 26 869 16 l 869 319 q 838 437 869 397 q 745 476 806 476 q 575 399 658 476 q 582 319 582 359 l 582 26 q 574 8 582 16 q 555 0 566 0 l 511 0 q 493 8 501 0 q 485 26 485 16 l 485 319 q 353 476 485 476 q 299 468 325 476 q 254 448 273 460 q 222 425 236 437 q 201 406 208 414 l 195 397 l 195 26 q 186 8 195 16 q 168 0 178 0 l 125 0 q 106 8 115 0 q 98 26 98 16 z "},"n":{"ha":687,"x_min":98,"x_max":596,"o":"m 98 26 l 98 529 q 106 547 98 539 q 125 555 115 555 l 151 555 q 174 539 170 555 l 186 496 q 195 504 189 498 q 221 522 201 509 q 262 544 241 534 q 316 562 283 553 q 380 570 348 570 q 596 319 596 570 l 596 26 q 588 8 596 16 q 570 0 580 0 l 525 0 q 507 8 515 0 q 498 26 498 16 l 498 319 q 466 437 498 397 q 374 476 433 476 q 315 468 345 476 q 265 448 286 460 q 228 425 244 437 q 203 406 212 414 l 195 397 l 195 26 q 186 8 195 16 q 168 0 178 0 l 125 0 q 106 8 115 0 q 98 26 98 16 z "},"o":{"ha":669,"x_min":58,"x_max":611,"o":"m 58 279 q 139 484 58 397 q 335 570 220 570 q 474 530 410 570 q 574 424 538 490 q 611 279 611 357 q 530 73 611 159 q 335 -14 450 -14 q 196 26 260 -14 q 95 133 132 66 q 58 279 58 201 m 154 279 q 207 136 154 195 q 335 77 259 77 q 463 136 411 77 q 515 279 515 195 q 463 420 515 362 q 335 478 411 478 q 207 420 259 478 q 154 279 154 362 z "},"p":{"ha":669,"x_min":100,"x_max":611,"o":"m 100 -390 l 100 529 q 108 547 100 539 q 126 555 116 555 l 155 555 q 178 538 171 555 l 187 511 q 195 517 190 513 q 215 532 199 522 q 249 549 231 542 q 294 563 267 557 q 349 570 321 570 q 536 484 460 570 q 611 277 611 398 q 535 70 611 154 q 345 -14 458 -14 q 294 -9 319 -14 q 252 2 269 -4 q 222 16 235 9 q 202 27 209 22 l 196 32 l 196 -390 q 188 -408 196 -400 q 170 -416 180 -416 l 126 -416 q 108 -408 116 -416 q 100 -390 100 -400 m 197 127 q 216 114 204 122 q 262 93 227 106 q 332 79 298 79 q 463 137 411 79 q 514 278 514 194 q 467 423 514 363 q 339 482 419 482 q 290 475 314 482 q 250 458 266 468 q 221 438 234 448 q 203 420 209 428 l 197 414 l 197 127 z "},"q":{"ha":669,"x_min":58,"x_max":570,"o":"m 58 277 q 134 484 58 398 q 321 570 209 570 q 405 555 365 570 q 464 526 446 541 l 482 511 l 492 536 q 518 555 499 555 l 543 555 q 562 547 553 555 q 570 529 570 539 l 570 -390 q 562 -408 570 -400 q 543 -416 553 -416 l 500 -416 q 481 -408 490 -416 q 473 -390 473 -400 l 473 35 q 467 30 471 33 q 448 18 463 26 q 417 3 433 9 q 376 -8 401 -3 q 325 -14 351 -14 q 135 70 211 -14 q 58 277 58 154 m 155 278 q 207 137 155 194 q 338 79 258 79 q 405 91 372 79 q 456 113 439 102 l 472 125 l 472 414 q 466 421 470 416 q 448 438 462 426 q 419 458 434 450 q 379 475 404 467 q 330 482 355 482 q 203 423 250 482 q 155 278 155 363 z "},"r":{"ha":464,"x_min":98,"x_max":452,"o":"m 98 26 l 98 529 q 106 547 98 539 q 125 555 115 555 l 151 555 q 175 536 171 555 l 186 496 q 192 504 188 498 q 211 522 196 509 q 244 544 227 534 q 291 562 262 553 q 353 570 320 570 q 388 568 371 570 q 422 562 405 566 q 447 547 439 556 q 452 533 452 541 q 450 524 452 528 l 433 476 q 400 464 425 454 q 346 475 376 475 q 290 467 316 475 q 247 448 263 459 q 218 425 230 436 q 200 406 205 413 l 195 397 l 195 26 q 186 8 195 16 q 168 0 178 0 l 125 0 q 106 8 115 0 q 98 26 98 16 z "},"s":{"ha":494,"x_min":62,"x_max":444,"o":"m 62 425 q 72 473 62 449 q 102 519 82 496 q 157 555 121 541 q 239 570 193 570 q 328 556 288 570 q 393 526 369 543 q 405 508 403 520 q 401 484 408 495 l 390 461 q 371 447 384 450 q 350 449 359 444 q 239 482 290 482 q 178 465 197 482 q 160 427 160 448 q 167 397 160 410 q 191 371 174 384 q 221 352 209 359 q 262 332 233 346 q 310 308 293 317 q 351 285 326 300 q 390 257 376 270 q 418 227 404 244 q 438 188 432 209 q 444 143 444 168 q 390 33 444 80 q 253 -14 336 -14 q 72 49 152 -14 q 64 62 66 53 q 65 78 62 71 q 76 97 68 83 q 85 113 83 111 q 100 122 90 121 q 122 117 111 123 q 141 103 129 111 q 187 81 153 95 q 253 68 222 68 q 319 87 294 68 q 343 135 343 106 q 317 190 343 169 q 221 245 291 211 q 164 276 188 262 q 115 313 140 291 q 76 363 90 335 q 62 425 62 391 z "},"t":{"ha":475,"x_min":37,"x_max":437,"o":"m 37 498 l 37 529 q 45 548 37 541 q 64 555 52 555 l 135 555 l 135 710 q 143 728 135 720 q 161 736 151 736 l 205 739 q 223 731 216 739 q 231 713 231 723 l 231 555 l 392 555 q 411 548 404 555 q 418 529 418 541 l 418 498 q 411 480 418 488 q 392 472 404 472 l 231 472 l 231 147 q 241 94 231 107 q 277 81 252 81 q 378 111 319 81 q 400 115 395 117 q 411 103 405 113 l 432 68 q 437 52 437 58 q 437 47 437 49 q 422 33 435 41 q 353 3 400 19 q 262 -14 305 -14 q 196 -2 222 -14 q 157 31 170 9 q 139 78 144 54 q 135 139 135 103 l 135 472 l 64 472 q 45 480 52 472 q 37 498 37 488 z "},"u":{"ha":673,"x_min":92,"x_max":575,"o":"m 92 237 l 92 529 q 100 547 92 539 q 118 555 108 555 l 163 555 q 181 547 173 555 q 189 529 189 539 l 189 236 q 222 119 189 158 q 314 79 254 79 q 372 87 344 79 q 418 107 399 96 q 451 130 437 119 q 473 150 466 142 l 479 158 l 479 529 q 487 547 479 539 q 505 555 495 555 l 549 555 q 567 547 559 555 q 575 529 575 539 l 575 26 q 567 8 575 16 q 549 0 559 0 l 522 0 q 506 6 511 0 q 497 24 500 12 l 488 60 q 480 52 485 57 q 457 34 475 47 q 420 12 440 22 q 370 -6 401 2 q 307 -14 340 -14 q 92 237 92 -14 z "},"v":{"ha":570,"x_min":19,"x_max":552,"o":"m 22 547 q 43 555 27 556 l 86 555 q 111 541 104 555 l 283 143 l 285 143 l 468 541 q 492 555 475 555 l 528 555 q 549 547 544 556 q 552 536 552 542 q 549 524 552 530 l 311 0 q 288 -14 306 -14 l 281 -14 q 257 0 262 -14 l 22 524 q 19 536 19 531 q 22 547 19 543 z "},"w":{"ha":838,"x_min":44,"x_max":795,"o":"m 46 524 q 44 536 44 531 q 66 555 44 555 l 110 555 q 135 541 130 555 l 236 174 l 237 174 l 395 555 q 418 570 400 570 l 425 570 q 449 555 444 570 l 604 172 l 606 172 l 705 541 q 714 551 707 547 q 729 555 721 555 l 772 555 q 795 536 795 555 q 793 524 795 531 l 642 0 q 618 -14 637 -14 l 611 -14 q 587 0 593 -14 l 418 416 l 254 0 q 231 -14 249 -14 l 224 -14 q 200 0 205 -14 l 46 524 z "},"x":{"ha":579,"x_min":45,"x_max":532,"o":"m 47 11 q 45 19 45 15 q 52 36 45 27 l 233 283 l 57 519 q 52 544 47 533 q 75 555 58 555 l 134 555 q 155 545 147 555 l 288 355 l 289 355 l 427 545 q 449 555 435 555 l 507 555 q 530 544 525 555 q 532 536 532 540 q 525 519 532 528 l 349 285 l 526 36 q 532 20 532 27 q 530 11 532 15 q 509 0 525 0 l 457 0 q 436 12 445 0 l 289 216 l 288 216 l 143 11 q 121 0 135 0 l 69 0 q 47 11 52 0 z "},"y":{"ha":647,"x_min":16,"x_max":627,"o":"m 19 547 q 40 555 24 555 l 102 555 q 125 541 117 555 l 330 115 l 332 115 l 526 541 q 550 555 534 555 l 603 555 q 625 547 618 555 q 627 536 627 542 q 624 524 627 531 l 197 -400 q 174 -416 189 -416 l 122 -416 q 99 -407 106 -416 q 100 -382 93 -397 l 278 1 l 20 525 q 16 538 16 532 q 19 547 16 543 z "},"z":{"ha":507,"x_min":50,"x_max":465,"o":"m 50 26 l 50 40 l 322 464 l 322 468 l 89 468 q 71 476 79 468 q 64 494 64 484 l 64 529 q 71 548 64 541 q 89 555 79 555 l 437 555 q 461 544 454 556 q 465 532 465 538 q 461 518 465 525 l 196 92 l 196 87 l 410 87 q 429 80 421 87 q 436 61 436 73 l 436 26 q 429 8 436 16 q 410 0 421 0 l 77 0 q 58 8 66 0 q 50 26 50 16 z "},"{":{"ha":554,"x_min":35,"x_max":519,"o":"m 35 257 l 35 300 q 41 314 35 308 q 56 321 47 319 q 119 356 86 326 q 151 429 151 387 l 151 653 q 173 784 151 726 q 230 880 195 843 q 310 941 264 917 q 401 976 356 966 q 492 986 446 986 q 511 980 503 986 q 519 962 519 974 l 519 936 q 514 919 519 926 q 501 911 509 911 q 377 869 433 901 q 284 782 321 838 q 248 653 248 725 l 248 468 q 237 384 248 419 q 207 328 227 349 q 173 300 186 308 q 138 282 159 292 l 138 272 q 173 254 159 262 q 207 226 186 246 q 237 170 227 205 q 248 86 248 135 l 248 -98 q 268 -199 248 -153 q 325 -276 289 -245 q 406 -328 361 -307 q 501 -355 450 -348 q 519 -379 519 -357 l 519 -407 q 511 -424 519 -417 q 492 -431 503 -431 q 401 -421 446 -431 q 310 -386 356 -411 q 230 -325 264 -361 q 173 -230 195 -288 q 151 -98 151 -171 l 151 125 q 119 198 151 167 q 56 233 86 229 q 41 241 47 234 q 35 257 35 249 z "},"|":{"ha":275,"x_min":107,"x_max":168,"o":"m 107 -392 l 107 1029 q 115 1048 107 1041 q 134 1055 123 1055 l 143 1055 q 161 1048 153 1055 q 168 1029 168 1041 l 168 -392 q 160 -409 168 -402 q 142 -416 152 -416 l 134 -416 q 115 -409 123 -416 q 107 -392 107 -402 z "},"}":{"ha":554,"x_min":35,"x_max":519,"o":"m 35 -379 q 53 -355 35 -357 q 178 -314 121 -345 q 271 -227 234 -283 q 307 -98 307 -170 l 307 86 q 315 157 307 126 q 334 207 323 189 q 361 239 344 224 q 389 259 379 254 q 416 272 399 264 l 416 282 q 389 295 399 290 q 361 315 379 300 q 334 348 344 330 q 315 397 323 366 q 307 468 307 428 l 307 653 q 286 753 307 707 q 229 831 265 800 q 149 883 193 863 q 53 911 104 903 q 40 919 45 911 q 35 936 35 926 l 35 962 q 43 980 35 974 q 62 986 51 986 q 153 976 108 986 q 244 941 198 966 q 325 880 290 917 q 381 784 359 843 q 403 653 403 726 l 403 429 q 435 356 403 387 q 498 321 468 326 q 513 314 507 319 q 519 300 519 308 l 519 257 q 513 241 519 249 q 498 233 507 234 q 435 198 468 229 q 403 125 403 167 l 403 -98 q 381 -230 403 -171 q 324 -325 359 -288 q 244 -386 290 -361 q 153 -421 198 -411 q 62 -431 108 -431 q 43 -424 52 -431 q 35 -407 35 -417 l 35 -379 z "},"~":{"ha":772,"x_min":73,"x_max":707,"o":"m 81 340 q 73 356 73 347 q 78 374 72 366 q 86 388 81 379 q 111 418 92 396 q 150 457 130 440 q 201 487 170 473 q 262 501 232 501 q 322 490 292 501 q 369 469 353 479 q 412 439 385 458 q 514 392 480 392 q 539 395 527 392 q 562 406 551 399 q 581 419 573 413 q 598 437 589 425 q 612 454 608 448 q 624 471 616 459 q 632 484 631 482 q 650 495 640 494 q 669 489 660 497 l 699 465 q 707 449 706 459 q 701 432 707 439 q 693 418 699 427 q 668 388 687 410 q 629 349 649 366 q 577 318 608 332 q 514 304 545 304 q 456 316 486 304 q 411 336 426 327 q 370 364 397 345 q 354 376 369 365 q 332 390 338 387 q 313 401 326 393 q 288 411 299 408 q 264 414 276 414 q 239 410 251 414 q 216 400 227 407 q 198 386 205 393 q 181 369 190 380 q 168 352 172 357 q 156 335 163 347 q 147 322 149 323 q 130 310 140 312 q 110 317 119 309 q 95 329 105 321 q 81 340 85 336 z "}," ":{"ha":308,"x_min":0,"x_max":0,"o":""},"¡":{"ha":317,"x_min":81,"x_max":239,"o":"m 81 490 q 104 546 81 523 q 160 570 127 570 q 215 546 192 570 q 239 490 239 522 q 216 434 239 457 q 160 411 193 411 q 103 434 126 411 q 81 490 81 457 m 98 -235 l 125 155 q 134 171 126 163 q 151 178 142 178 l 168 178 q 185 171 177 178 q 195 155 193 163 l 221 -232 l 221 -390 q 213 -408 221 -400 q 195 -416 205 -416 l 125 -416 q 106 -408 115 -416 q 98 -390 98 -400 l 98 -235 z "},"¢":{"ha":593,"x_min":41,"x_max":543,"o":"m 41 277 q 125 485 41 399 q 328 570 209 570 q 364 567 340 570 l 379 624 q 392 639 382 634 q 411 642 401 644 l 421 639 q 436 628 431 637 q 439 607 441 618 l 424 551 q 526 472 483 526 q 532 452 533 463 q 521 433 530 441 l 494 411 q 485 404 489 406 q 477 402 480 402 q 471 403 474 401 q 466 406 467 405 q 460 411 464 408 q 454 416 456 415 q 399 458 432 442 l 296 79 q 325 78 305 78 q 374 84 352 78 q 417 104 396 90 q 445 124 437 118 q 472 150 452 131 q 494 162 486 162 q 514 153 501 161 l 529 142 q 542 124 539 134 q 539 103 545 113 q 451 19 507 51 q 326 -14 395 -14 q 272 -8 294 -14 l 236 -143 q 224 -158 234 -153 q 204 -161 214 -163 l 196 -158 q 180 -147 186 -156 q 176 -127 174 -138 l 212 9 q 89 114 136 42 q 41 277 41 186 m 142 278 q 168 172 142 220 q 237 100 193 125 l 339 473 q 326 475 332 475 q 195 418 248 475 q 142 278 142 361 z "},"£":{"ha":700,"x_min":82,"x_max":638,"o":"m 82 435 l 82 444 q 90 463 82 454 q 107 471 97 471 l 151 471 q 138 518 150 477 q 116 607 125 559 q 107 701 107 655 q 190 908 107 830 q 397 986 273 986 q 629 888 518 986 q 638 870 637 882 q 632 851 639 859 l 603 815 q 562 814 582 789 q 553 823 559 817 q 529 842 547 828 q 492 866 511 856 q 445 886 473 877 q 392 895 418 895 q 257 841 311 895 q 204 700 204 787 q 215 602 204 652 q 237 514 225 552 q 250 471 250 477 l 478 471 q 497 463 490 471 q 504 444 504 455 l 504 433 q 497 416 504 423 q 478 408 490 408 l 265 408 q 273 315 273 370 q 264 197 274 260 q 235 89 255 133 l 582 89 q 600 81 592 89 q 607 62 607 74 l 607 26 q 600 8 607 16 q 582 0 592 0 l 140 0 q 122 8 130 0 q 114 26 114 16 l 114 52 q 168 408 203 221 l 107 408 q 90 416 97 408 q 82 435 82 425 z "},"¤":{"ha":661,"x_min":106,"x_max":556,"o":"m 113 271 q 106 290 106 278 q 113 309 106 301 l 170 366 q 144 461 144 410 q 170 557 144 512 l 113 614 q 106 633 106 621 q 113 652 106 644 l 140 677 q 159 685 148 685 q 178 677 171 685 l 235 621 q 330 648 279 648 q 427 623 381 649 l 485 681 q 503 687 492 688 q 521 679 513 686 l 549 652 q 556 633 556 644 q 549 615 556 623 l 492 558 q 519 462 519 515 q 492 364 519 409 l 549 307 q 556 289 556 300 q 549 271 556 278 l 521 243 q 503 235 513 235 q 485 241 492 235 l 427 300 q 330 274 382 274 q 235 301 278 274 l 178 244 q 159 237 171 237 q 140 244 148 237 l 113 271 m 260 532 q 245 518 260 532 q 231 461 231 503 q 260 390 231 419 q 330 361 289 361 q 401 390 372 361 q 431 461 431 419 q 401 532 431 503 q 330 561 372 561 q 260 532 289 561 z "},"¥":{"ha":858,"x_min":37,"x_max":821,"o":"m 39 932 q 38 959 31 945 q 61 972 45 972 l 126 972 q 149 960 139 972 l 429 572 l 710 960 q 732 972 720 972 l 798 972 q 821 959 814 972 q 819 932 827 945 l 481 469 l 481 400 l 660 400 q 679 392 671 400 q 686 374 686 385 l 686 363 q 679 345 686 353 q 660 338 671 338 l 481 338 l 481 233 l 660 233 q 679 225 671 233 q 686 207 686 218 l 686 196 q 679 178 686 186 q 660 171 671 171 l 481 171 l 481 26 q 473 8 481 16 q 454 0 465 0 l 400 0 q 381 8 389 0 q 374 26 374 16 l 374 171 l 192 171 q 174 179 182 171 q 167 197 167 187 l 167 207 q 174 225 167 217 q 192 233 182 233 l 374 233 l 374 338 l 192 338 q 174 346 182 338 q 167 364 167 354 l 167 374 q 174 392 167 384 q 192 400 182 400 l 374 400 l 374 468 l 39 932 z "},"¦":{"ha":505,"x_min":222,"x_max":283,"o":"m 222 68 q 230 87 222 79 q 249 94 238 94 l 258 94 q 276 87 269 94 q 283 68 283 79 l 283 -392 q 275 -409 283 -402 q 257 -416 267 -416 l 249 -416 q 231 -409 239 -416 q 222 -392 222 -402 l 222 68 m 222 571 l 222 1029 q 230 1048 222 1041 q 249 1055 238 1055 l 258 1055 q 276 1048 269 1055 q 283 1029 283 1041 l 283 571 q 275 553 283 561 q 257 546 267 546 l 249 546 q 231 553 239 546 q 222 571 222 561 z "},"§":{"ha":732,"x_min":56,"x_max":665,"o":"m 60 -223 q 58 -221 60 -223 q 56 -209 56 -219 q 64 -187 55 -199 l 92 -153 q 134 -149 112 -127 q 158 -170 142 -157 q 207 -204 174 -182 q 283 -240 239 -225 q 368 -254 326 -254 q 500 -218 447 -254 q 554 -115 554 -182 q 495 0 554 -52 q 311 104 435 52 q 130 219 193 154 q 66 375 66 285 q 78 439 66 408 q 106 489 90 469 q 138 524 122 509 q 166 546 155 539 l 178 553 q 165 561 173 555 q 139 586 158 567 q 105 627 120 605 q 78 683 90 648 q 66 753 66 717 q 76 813 66 783 q 107 876 85 844 q 162 931 130 907 q 247 971 195 956 q 363 986 299 986 q 483 968 423 986 q 571 933 542 951 l 600 916 q 610 907 606 913 q 616 892 614 902 q 610 869 618 882 l 589 838 q 543 829 572 814 l 536 833 q 523 842 529 838 q 504 852 516 846 q 480 863 492 858 q 453 874 469 869 q 424 884 438 880 q 393 890 409 888 q 361 893 376 893 q 268 880 307 893 q 208 845 229 867 q 179 801 188 823 q 170 754 170 778 q 217 654 170 698 q 357 572 265 610 q 461 526 420 546 q 545 480 503 506 q 611 427 587 454 q 650 367 635 401 q 665 292 665 332 q 653 227 665 259 q 624 173 641 195 q 589 134 606 151 q 559 109 572 117 l 547 100 q 560 91 552 96 q 589 64 568 85 q 624 21 609 44 q 652 -37 640 -1 q 665 -111 665 -73 q 581 -282 665 -218 q 366 -347 496 -347 q 274 -337 319 -347 q 197 -313 228 -326 q 136 -281 165 -299 q 94 -253 106 -263 q 72 -235 81 -243 q 60 -223 63 -227 m 170 379 q 180 328 170 351 q 206 288 191 304 q 252 253 221 272 q 309 222 283 235 q 382 187 334 210 q 464 147 430 165 q 473 153 467 149 q 495 168 479 156 q 523 195 511 180 q 544 233 534 209 q 554 283 554 257 q 539 339 554 314 q 492 389 525 365 q 418 432 458 412 q 311 479 377 452 q 253 505 277 493 q 244 501 250 504 q 224 487 238 498 q 199 463 210 476 q 179 427 188 450 q 170 379 170 405 z "},"¨":{"ha":574,"x_min":111,"x_max":511,"o":"m 111 878 q 130 925 111 905 q 176 945 149 945 q 223 925 204 945 q 243 878 243 905 q 223 831 243 850 q 176 812 204 812 q 130 831 149 812 q 111 878 111 850 m 379 878 q 398 925 379 905 q 444 945 417 945 q 492 925 472 945 q 511 878 511 905 q 492 831 511 850 q 444 812 472 812 q 398 831 417 812 q 379 878 379 850 z "},"©":{"ha":1147,"x_min":75,"x_max":1074,"o":"m 142 236 q 109 293 142 236 q 75 486 75 351 q 142 737 75 622 q 323 919 209 852 q 574 986 438 986 q 824 919 709 986 q 1006 737 939 852 q 1074 486 1074 622 q 1006 236 1074 351 q 824 55 939 121 q 574 -12 709 -12 q 323 55 438 -12 q 142 236 209 121 m 158 486 q 191 325 158 402 q 279 192 224 248 q 412 103 335 136 q 574 71 490 71 q 735 103 659 71 q 868 192 812 136 q 956 325 924 248 q 989 486 989 401 q 933 695 989 600 q 783 846 878 791 q 574 901 687 901 q 412 869 489 901 q 280 781 336 836 q 191 648 224 725 q 158 486 158 571 m 326 484 q 402 669 326 593 q 586 745 478 745 q 746 692 678 745 q 756 672 755 684 q 749 652 757 661 l 729 627 q 692 625 717 610 q 589 657 644 657 q 471 607 518 657 q 424 488 424 557 q 471 367 424 416 q 589 318 517 318 q 688 349 642 318 q 728 347 714 364 l 750 321 q 757 301 758 313 q 749 282 757 290 q 586 224 680 224 q 402 300 479 224 q 326 484 326 376 z "},"ª":{"ha":433,"x_min":49,"x_max":361,"o":"m 49 696 q 91 792 49 755 q 210 829 134 829 q 249 826 229 829 q 281 819 270 822 l 293 815 q 281 899 293 876 q 231 922 270 922 q 203 921 217 922 q 179 918 189 920 q 157 912 169 916 q 139 907 144 909 q 123 901 133 905 q 111 897 113 898 q 98 900 104 895 q 90 913 92 905 l 83 937 q 93 958 80 951 q 113 967 98 962 q 163 980 128 973 q 236 986 198 986 q 273 983 256 986 q 302 975 290 979 q 324 961 315 970 q 340 943 334 951 q 350 921 346 936 q 356 898 354 907 q 360 871 359 889 q 361 844 361 852 q 361 814 361 835 q 361 810 361 812 q 361 807 361 809 q 361 803 361 805 l 361 591 q 356 578 361 583 q 343 572 351 572 l 318 572 q 301 586 306 572 l 293 615 q 265 591 276 600 q 228 571 254 582 q 172 561 201 561 q 84 598 119 561 q 49 696 49 635 m 111 697 q 131 647 111 667 q 180 627 151 627 q 243 643 213 627 q 290 679 274 659 l 290 757 q 205 775 254 775 q 138 753 165 775 q 111 697 111 731 z "},"«":{"ha":576,"x_min":57,"x_max":503,"o":"m 57 269 q 57 302 45 285 l 208 509 q 233 525 218 525 l 253 525 q 276 512 271 525 q 273 482 282 499 l 171 289 l 269 85 q 272 55 278 68 q 249 43 267 43 l 222 43 q 201 54 210 43 l 57 269 m 283 269 q 283 302 272 285 l 435 509 q 460 525 444 525 l 479 525 q 503 512 497 525 q 500 482 509 499 l 397 289 l 496 85 q 498 55 504 68 q 475 43 492 43 l 449 43 q 428 54 437 43 l 283 269 z "},"¬":{"ha":722,"x_min":52,"x_max":632,"o":"m 52 463 l 52 501 q 60 519 52 511 q 78 528 68 528 l 606 528 q 624 519 616 528 q 632 501 632 511 l 632 218 q 624 201 632 208 q 606 193 616 193 l 567 193 q 549 201 557 193 q 541 218 541 208 l 541 436 l 78 436 q 60 444 68 436 q 52 463 52 452 z "},"­":{"ha":481,"x_min":69,"x_max":412,"o":"m 69 330 l 69 357 q 77 376 69 368 q 96 383 84 383 l 386 383 q 405 376 397 383 q 412 357 412 368 l 412 330 q 405 313 412 320 q 386 306 397 306 l 96 306 q 77 313 84 306 q 69 330 69 320 z "},"®":{"ha":1148,"x_min":75,"x_max":1074,"o":"m 142 236 q 109 293 142 236 q 75 486 75 351 q 142 737 75 622 q 323 919 209 852 q 574 986 438 986 q 824 919 709 986 q 1006 737 939 852 q 1074 486 1074 622 q 1006 236 1074 351 q 824 55 939 121 q 574 -12 709 -12 q 323 55 438 -12 q 142 236 209 121 m 158 486 q 191 325 158 402 q 279 192 224 248 q 412 103 335 136 q 574 71 490 71 q 735 103 659 71 q 868 192 812 136 q 956 325 924 248 q 989 486 989 401 q 933 695 989 600 q 783 846 878 791 q 574 901 687 901 q 412 869 489 901 q 280 781 336 836 q 191 648 224 725 q 158 486 158 571 m 400 260 l 400 715 q 408 734 400 726 q 427 742 415 742 l 624 742 q 744 701 694 742 q 794 586 794 660 q 783 520 794 549 q 752 474 771 491 q 716 448 734 457 q 682 435 699 439 q 723 353 696 408 q 765 271 751 298 q 764 245 772 258 q 742 233 757 233 l 694 233 q 669 253 680 233 l 591 427 l 489 427 l 489 260 q 481 241 489 249 q 463 233 474 233 l 427 233 q 408 241 415 233 q 400 260 400 249 m 488 507 l 624 507 q 684 530 661 507 q 707 586 707 553 q 684 644 707 622 q 624 665 662 665 l 488 665 l 488 507 z "},"¯":{"ha":574,"x_min":83,"x_max":492,"o":"m 83 835 l 83 864 q 91 883 83 876 q 110 890 98 890 l 465 890 q 484 883 477 890 q 492 864 492 876 l 492 835 q 484 817 492 825 q 465 810 477 810 l 110 810 q 91 817 98 810 q 83 835 83 825 z "},"°":{"ha":464,"x_min":45,"x_max":419,"o":"m 99 666 q 72 693 99 666 q 45 799 45 720 q 99 932 45 878 q 232 986 153 986 q 364 931 309 986 q 419 799 419 877 q 364 666 419 721 q 232 611 309 611 q 99 666 154 611 m 118 799 q 153 720 118 754 q 232 685 187 685 q 309 720 275 685 q 343 799 343 754 q 309 876 343 842 q 232 909 275 909 q 153 876 187 909 q 118 799 118 842 z "},"±":{"ha":829,"x_min":123,"x_max":705,"o":"m 123 111 l 123 150 q 132 168 123 160 q 150 176 140 176 l 679 176 q 696 168 689 176 q 704 150 704 160 l 704 111 q 696 93 704 101 q 679 85 689 85 l 150 85 q 132 93 140 85 q 123 111 123 101 m 125 559 l 125 599 q 133 617 125 609 q 151 625 141 625 l 370 625 l 370 831 q 378 848 370 841 q 396 856 386 856 l 435 856 q 453 848 445 856 q 461 831 461 841 l 461 625 l 681 625 q 698 617 691 625 q 705 599 705 609 l 705 559 q 698 541 705 549 q 681 533 691 533 l 461 533 l 461 371 q 453 353 461 361 q 435 346 445 346 l 396 346 q 378 353 386 346 q 370 371 370 361 l 370 533 l 151 533 q 133 541 141 533 q 125 559 125 549 z "},"²":{"ha":426,"x_min":62,"x_max":358,"o":"m 62 713 l 62 732 l 239 917 q 273 960 262 943 q 283 994 283 977 q 263 1040 283 1019 q 204 1060 243 1060 q 118 1018 160 1060 q 102 1018 110 1010 l 74 1047 q 74 1063 65 1056 q 80 1069 76 1065 q 98 1084 84 1074 q 126 1103 111 1095 q 163 1118 140 1112 q 208 1125 185 1125 q 319 1090 280 1125 q 358 1002 358 1055 q 290 876 358 946 l 178 761 l 346 761 q 358 747 358 761 l 358 713 q 346 700 358 700 l 77 700 q 62 713 62 700 z "},"³":{"ha":414,"x_min":58,"x_max":359,"o":"m 58 743 q 60 758 50 751 l 89 786 q 107 785 100 792 l 110 783 q 117 778 113 780 q 125 772 120 776 q 137 765 131 768 q 150 759 142 762 q 165 754 157 756 q 181 750 172 751 q 199 749 190 749 q 257 766 232 749 q 282 811 282 784 q 256 858 282 839 q 180 878 231 878 l 138 878 q 128 881 132 878 q 123 890 123 884 l 123 925 q 138 937 123 937 l 180 937 q 248 955 225 937 q 271 999 271 972 q 248 1044 271 1026 q 196 1061 226 1061 q 118 1028 151 1061 q 100 1028 110 1020 l 72 1053 q 68 1061 68 1055 q 72 1069 68 1066 q 78 1075 74 1072 q 95 1089 82 1079 q 123 1106 109 1099 q 158 1119 137 1113 q 201 1125 180 1125 q 306 1093 264 1125 q 347 1010 347 1061 q 325 950 347 977 q 275 913 302 923 l 275 909 q 333 870 306 898 q 359 806 359 842 q 316 720 359 754 q 201 686 272 686 q 58 743 111 686 z "},"´":{"ha":419,"x_min":100,"x_max":381,"o":"m 102 810 q 101 825 98 818 q 110 836 103 833 l 318 953 q 336 957 323 958 q 354 949 349 957 l 379 899 q 381 881 383 890 q 371 869 379 872 l 147 777 q 126 771 132 770 q 115 779 119 771 l 102 810 z "},"µ":{"ha":701,"x_min":102,"x_max":585,"o":"m 102 -390 l 102 529 q 110 547 102 539 q 127 555 117 555 l 172 555 q 191 547 182 555 q 199 529 199 539 l 199 236 q 231 119 199 158 q 323 79 264 79 q 381 87 353 79 q 428 107 409 96 q 461 130 446 119 q 482 150 475 142 l 489 158 l 489 529 q 497 547 489 539 q 515 555 505 555 l 558 555 q 576 547 568 555 q 585 529 585 539 l 585 26 q 576 8 585 16 q 558 0 568 0 l 532 0 q 507 24 514 0 l 497 60 q 489 52 494 57 q 467 34 484 47 q 430 12 450 22 q 380 -6 410 2 q 317 -14 349 -14 q 197 14 243 -14 l 197 -390 q 189 -408 197 -400 q 171 -416 181 -416 l 127 -416 q 110 -408 117 -416 q 102 -390 102 -400 z "},"¶":{"ha":975,"x_min":35,"x_max":945,"o":"m 35 684 q 113 888 35 803 q 304 974 192 974 l 918 972 q 937 964 928 972 q 945 946 945 956 l 945 918 q 937 899 945 907 q 918 892 929 892 l 764 892 l 764 -392 q 756 -410 764 -402 q 737 -418 749 -418 l 708 -418 q 690 -410 698 -418 q 682 -392 682 -402 l 682 892 l 465 892 l 465 -392 q 457 -410 465 -402 q 439 -418 449 -418 l 411 -418 q 393 -410 401 -418 q 385 -392 385 -402 l 385 392 l 323 392 q 120 477 205 392 q 35 684 35 562 z "},"·":{"ha":317,"x_min":79,"x_max":237,"o":"m 79 363 q 102 419 79 396 q 158 441 125 441 q 215 419 192 441 q 237 363 237 396 q 214 307 237 330 q 158 283 191 283 q 103 307 126 283 q 79 363 79 331 z "},"¸":{"ha":342,"x_min":41,"x_max":300,"o":"m 49 -313 q 41 -293 41 -303 q 49 -277 41 -282 l 68 -261 q 85 -255 75 -256 q 100 -261 94 -255 q 157 -286 123 -286 q 201 -268 184 -286 q 218 -221 218 -250 q 208 -182 218 -199 q 178 -156 197 -165 q 142 -142 158 -146 q 103 -134 125 -138 q 79 -106 79 -129 l 79 0 l 154 0 l 154 -74 q 260 -120 220 -82 q 300 -216 300 -157 q 258 -319 300 -277 q 154 -361 216 -361 q 95 -348 123 -361 q 49 -313 67 -334 z "},"¹":{"ha":264,"x_min":33,"x_max":186,"o":"m 33 1018 q 37 1034 31 1027 l 135 1111 l 174 1111 q 186 1099 186 1111 l 186 713 q 182 704 186 707 q 174 700 178 700 l 125 700 q 115 704 119 700 q 111 713 111 707 l 111 1004 l 54 989 q 40 994 42 986 l 33 1018 z "},"º":{"ha":450,"x_min":53,"x_max":397,"o":"m 53 765 q 98 927 53 869 q 225 985 143 985 q 352 927 307 985 q 397 765 397 869 q 352 605 397 663 q 225 547 307 547 q 98 605 143 547 q 53 765 53 663 m 154 878 q 142 858 154 878 q 129 765 129 838 q 154 653 129 692 q 225 614 179 614 q 296 653 271 614 q 321 765 321 692 q 296 878 321 838 q 225 918 271 918 q 154 878 180 918 z "},"»":{"ha":576,"x_min":72,"x_max":518,"o":"m 75 482 q 72 512 66 499 q 96 525 78 525 l 115 525 q 140 509 131 525 l 292 302 q 292 269 303 285 l 147 54 q 126 43 138 43 l 100 43 q 76 55 82 43 q 79 85 71 68 l 178 289 l 75 482 m 301 482 q 299 512 293 499 q 322 525 304 525 l 342 525 q 367 509 357 525 l 518 302 q 518 269 530 285 l 374 54 q 353 43 365 43 l 326 43 q 303 55 309 43 q 306 85 297 68 l 404 289 l 301 482 z "},"¼":{"ha":879,"x_min":53,"x_max":803,"o":"m 53 879 q 57 895 51 888 l 154 972 l 193 972 q 205 960 205 972 l 205 574 q 202 565 205 568 q 193 561 198 561 l 144 561 q 135 565 138 561 q 131 574 131 568 l 131 865 l 74 850 q 60 856 62 847 l 53 879 m 125 37 l 602 958 q 625 972 610 972 l 647 972 q 670 960 663 972 q 671 935 678 948 l 192 14 q 168 0 185 0 l 149 0 q 125 12 133 0 q 125 37 118 24 m 440 94 l 440 135 l 679 407 q 690 411 683 411 l 720 411 q 729 407 725 411 q 733 399 733 404 l 733 142 l 790 142 q 799 138 795 142 q 803 131 803 135 l 803 94 q 799 87 803 90 q 790 83 795 83 l 733 83 l 733 12 q 729 4 733 7 q 720 0 725 0 l 675 0 q 665 4 669 0 q 661 12 661 7 l 661 82 l 453 82 q 444 86 448 82 q 440 94 440 90 m 517 143 l 664 143 l 664 307 l 517 143 z "},"½":{"ha":869,"x_min":53,"x_max":778,"o":"m 53 879 q 57 895 51 888 l 154 972 l 193 972 q 205 960 205 972 l 205 574 q 202 565 205 568 q 193 561 198 561 l 144 561 q 135 565 138 561 q 131 574 131 568 l 131 865 l 74 850 q 60 856 62 847 l 53 879 m 125 37 l 602 958 q 625 972 610 972 l 647 972 q 670 960 663 972 q 671 935 678 948 l 192 14 q 168 0 185 0 l 149 0 q 125 12 133 0 q 125 37 118 24 m 482 12 l 482 32 l 659 216 q 703 294 703 264 q 683 339 703 319 q 624 359 663 359 q 538 318 579 359 q 521 318 529 309 l 493 347 q 493 363 484 356 q 499 370 495 366 q 517 385 503 374 q 545 404 530 395 q 582 418 559 412 q 628 425 605 425 q 739 390 700 425 q 778 301 778 355 q 710 176 778 246 l 597 61 l 765 61 q 778 47 778 61 l 778 12 q 765 0 778 0 l 496 0 q 482 12 482 0 z "},"¾":{"ha":941,"x_min":62,"x_max":865,"o":"m 62 604 q 64 619 54 612 l 93 647 q 111 646 104 653 l 114 643 q 121 639 117 641 q 130 633 124 637 q 141 626 135 629 q 154 620 146 623 q 169 615 161 617 q 185 611 176 612 q 203 610 194 610 q 261 627 236 610 q 286 672 286 645 q 260 720 286 701 q 184 739 235 739 l 142 739 q 127 751 127 739 l 127 786 q 142 799 127 799 l 184 799 q 252 816 229 799 q 275 860 275 833 q 253 905 275 887 q 200 922 230 922 q 122 889 155 922 q 104 889 114 881 l 77 914 q 73 922 73 917 q 77 930 73 928 q 83 936 79 932 q 100 950 87 940 q 127 967 113 960 q 162 980 141 974 q 205 986 184 986 q 310 954 268 986 q 351 871 351 922 q 329 811 351 838 q 279 774 307 784 l 279 771 q 337 731 310 760 q 364 667 364 703 q 320 581 364 615 q 205 547 276 547 q 62 604 115 547 m 187 37 l 664 958 q 688 972 672 972 l 710 972 q 733 960 726 972 q 733 935 741 948 l 254 14 q 231 0 248 0 l 211 0 q 188 12 195 0 q 187 37 180 24 m 503 94 l 503 135 l 742 407 q 753 411 746 411 l 782 411 q 792 407 787 411 q 796 399 796 404 l 796 142 l 852 142 q 861 138 857 142 q 865 131 865 135 l 865 94 q 861 87 865 90 q 852 83 857 83 l 796 83 l 796 12 q 792 4 796 7 q 782 0 787 0 l 737 0 q 728 4 732 0 q 724 12 724 7 l 724 82 l 515 82 q 506 86 510 82 q 503 94 503 90 m 579 143 l 726 143 l 726 307 l 579 143 z "},"¿":{"ha":338,"x_min":-90,"x_max":406,"o":"m -90 -218 q -78 -150 -90 -182 q -46 -97 -66 -119 q -4 -56 -27 -75 q 42 -20 19 -37 q 85 13 66 -3 q 117 50 104 29 q 129 93 129 70 l 129 150 q 138 171 129 163 q 158 178 146 178 l 196 178 q 215 170 207 178 q 222 151 222 163 l 222 93 q 211 30 222 58 q 181 -18 199 1 q 140 -54 163 -37 q 96 -87 118 -71 q 55 -121 73 -103 q 25 -165 37 -139 q 14 -222 14 -191 q 50 -309 14 -274 q 151 -345 86 -345 q 186 -342 170 -345 q 218 -336 203 -340 q 244 -327 233 -331 q 269 -314 256 -323 q 289 -302 281 -306 q 307 -288 296 -298 q 320 -274 317 -277 q 334 -260 323 -271 l 343 -250 q 379 -249 361 -233 l 406 -272 q 406 -309 422 -286 q 396 -322 402 -313 q 366 -351 389 -330 q 316 -388 343 -372 q 245 -417 290 -404 q 151 -431 200 -431 q -24 -372 43 -431 q -90 -218 -90 -314 m 100 490 q 123 546 100 523 q 179 570 146 570 q 235 546 211 570 q 258 490 258 522 q 235 434 258 457 q 179 411 212 411 q 122 434 145 411 q 100 490 100 457 z "},"À":{"ha":920,"x_min":8,"x_max":911,"o":"m 8 36 l 431 971 q 454 986 438 986 l 468 986 q 492 971 484 986 l 911 36 q 910 11 917 22 q 888 0 903 0 l 832 0 q 808 16 814 0 l 705 244 l 212 244 l 111 16 q 87 0 105 0 l 32 0 q 9 11 16 0 q 8 36 2 22 m 252 330 l 668 330 q 567 558 634 406 q 465 786 499 711 l 454 786 l 252 330 m 330 1178 q 320 1190 322 1181 q 322 1207 318 1199 l 347 1257 q 365 1265 352 1265 q 383 1261 378 1266 l 591 1145 q 601 1134 598 1141 q 600 1118 604 1126 l 586 1088 q 575 1079 582 1080 q 554 1084 569 1078 l 330 1178 z "},"Á":{"ha":920,"x_min":8,"x_max":911,"o":"m 8 36 l 431 971 q 454 986 438 986 l 468 986 q 492 971 484 986 l 911 36 q 910 11 917 22 q 888 0 903 0 l 832 0 q 808 16 814 0 l 705 244 l 212 244 l 111 16 q 87 0 105 0 l 32 0 q 9 11 16 0 q 8 36 2 22 m 252 330 l 668 330 q 567 558 634 406 q 465 786 499 711 l 454 786 l 252 330 m 321 1118 q 320 1134 317 1126 q 329 1145 322 1141 l 538 1261 q 556 1265 543 1266 q 574 1257 569 1265 l 599 1207 q 601 1190 603 1199 q 590 1178 598 1181 l 367 1084 q 346 1079 352 1078 q 335 1088 339 1080 l 321 1118 z "},"Â":{"ha":920,"x_min":8,"x_max":911,"o":"m 8 36 l 431 971 q 454 986 438 986 l 468 986 q 492 971 484 986 l 911 36 q 910 11 917 22 q 888 0 903 0 l 832 0 q 808 16 814 0 l 705 244 l 212 244 l 111 16 q 87 0 105 0 l 32 0 q 9 11 16 0 q 8 36 2 22 m 252 330 l 668 330 q 567 558 634 406 q 465 786 499 711 l 454 786 l 252 330 m 268 1101 q 267 1116 264 1109 q 277 1128 270 1123 l 443 1258 q 461 1264 451 1264 q 479 1258 471 1264 l 646 1128 q 655 1116 652 1123 q 654 1101 659 1109 q 647 1090 652 1099 q 639 1077 642 1082 q 630 1068 635 1073 q 617 1065 624 1064 q 603 1071 611 1065 l 461 1168 l 319 1074 q 288 1076 299 1061 l 268 1101 z "},"Ã":{"ha":920,"x_min":8,"x_max":911,"o":"m 8 36 l 431 971 q 454 986 438 986 l 468 986 q 492 971 484 986 l 911 36 q 910 11 917 22 q 888 0 903 0 l 832 0 q 808 16 814 0 l 705 244 l 212 244 l 111 16 q 87 0 105 0 l 32 0 q 9 11 16 0 q 8 36 2 22 m 252 330 l 668 330 q 567 558 634 406 q 465 786 499 711 l 454 786 l 252 330 m 257 1147 q 264 1164 258 1150 q 275 1189 271 1179 q 291 1215 280 1200 q 314 1240 302 1230 q 344 1257 326 1250 q 385 1264 363 1264 q 428 1254 408 1264 q 463 1228 448 1243 q 489 1197 477 1213 q 514 1172 501 1182 q 538 1161 526 1161 q 600 1232 580 1161 q 632 1243 607 1254 l 654 1232 q 661 1227 659 1230 q 664 1221 663 1224 q 664 1214 665 1219 q 664 1208 664 1210 q 662 1201 663 1206 q 660 1196 660 1196 q 536 1083 622 1083 q 486 1099 511 1083 q 446 1135 461 1116 q 413 1171 430 1155 q 383 1187 395 1187 q 360 1181 370 1187 q 342 1163 349 1175 q 331 1142 334 1152 q 322 1118 327 1133 q 310 1102 319 1107 q 288 1104 302 1098 l 262 1117 q 257 1147 248 1124 z "},"Ä":{"ha":920,"x_min":8,"x_max":911,"o":"m 8 36 l 431 971 q 454 986 438 986 l 468 986 q 492 971 484 986 l 911 36 q 910 11 917 22 q 888 0 903 0 l 832 0 q 808 16 814 0 l 705 244 l 212 244 l 111 16 q 87 0 105 0 l 32 0 q 9 11 16 0 q 8 36 2 22 m 248 1165 q 267 1213 248 1193 q 313 1232 286 1232 q 360 1213 340 1232 q 379 1165 379 1193 q 360 1119 379 1138 q 313 1100 340 1100 q 267 1119 286 1100 q 248 1165 248 1138 m 252 330 l 668 330 q 567 558 634 406 q 465 786 499 711 l 454 786 l 252 330 m 541 1165 q 559 1213 541 1193 q 606 1232 578 1232 q 653 1213 633 1232 q 672 1165 672 1193 q 653 1119 672 1138 q 606 1100 633 1100 q 559 1119 578 1100 q 541 1165 541 1138 z "},"Å":{"ha":920,"x_min":8,"x_max":911,"o":"m 8 36 l 431 971 q 454 986 438 986 l 468 986 q 492 971 484 986 l 911 36 q 910 11 917 22 q 888 0 903 0 l 832 0 q 808 16 814 0 l 705 244 l 212 244 l 111 16 q 87 0 105 0 l 32 0 q 9 11 16 0 q 8 36 2 22 m 252 330 l 668 330 q 567 558 634 406 q 465 786 499 711 l 454 786 l 252 330 m 352 1097 q 330 1119 352 1097 q 309 1204 309 1141 q 352 1312 309 1268 q 460 1356 396 1356 q 567 1312 523 1356 q 611 1204 611 1267 q 567 1097 611 1141 q 460 1053 522 1053 q 352 1097 396 1053 m 375 1204 q 400 1145 375 1171 q 460 1120 426 1120 q 517 1145 493 1120 q 542 1204 542 1171 q 518 1262 542 1238 q 460 1286 494 1286 q 400 1262 426 1286 q 375 1204 375 1238 z "},"Æ":{"ha":1246,"x_min":-12,"x_max":1165,"o":"m 8 0 q -12 11 -7 0 q -8 36 -16 22 l 549 929 q 554 937 550 931 q 558 944 557 943 q 563 950 559 946 q 568 956 566 955 q 572 961 569 958 q 578 965 576 964 q 584 968 581 966 q 591 971 588 970 q 600 972 595 971 q 610 972 604 972 l 1139 972 q 1158 965 1150 972 q 1165 946 1165 957 l 1165 905 q 1158 887 1165 895 q 1139 879 1150 879 l 664 879 l 664 541 l 1071 541 q 1089 532 1081 541 q 1097 514 1097 524 l 1097 473 q 1089 454 1097 462 q 1071 447 1082 447 l 664 447 l 664 93 l 1139 93 q 1158 85 1150 93 q 1165 66 1165 77 l 1165 26 q 1158 8 1165 16 q 1139 0 1150 0 l 591 0 q 573 8 580 0 q 566 26 566 16 l 566 244 l 236 244 l 92 16 q 65 0 79 0 l 8 0 m 286 330 l 566 330 l 566 786 l 286 330 z "},"Ç":{"ha":985,"x_min":72,"x_max":920,"o":"m 72 485 q 139 737 72 622 q 321 919 206 852 q 574 986 437 986 q 755 954 675 986 q 909 857 835 921 q 918 838 918 849 q 911 818 919 826 l 873 781 q 838 782 858 762 q 712 858 783 830 q 572 886 642 886 q 419 854 492 886 q 296 767 347 821 q 215 639 245 713 q 184 486 184 566 q 235 289 184 380 q 375 142 286 197 q 572 87 465 87 q 653 95 616 87 q 724 120 690 103 q 781 151 758 136 q 838 192 804 166 q 871 196 855 206 l 913 158 q 919 140 920 151 q 911 121 918 128 q 574 -14 772 -14 l 574 -74 q 680 -120 640 -82 q 720 -216 720 -157 q 677 -319 720 -277 q 574 -361 635 -361 q 515 -348 543 -361 q 468 -313 486 -334 q 460 -293 460 -303 q 468 -277 460 -282 l 488 -261 q 505 -255 495 -256 q 519 -261 514 -255 q 576 -286 543 -286 q 621 -268 604 -286 q 637 -221 637 -250 q 627 -182 637 -199 q 597 -156 616 -165 q 561 -142 577 -146 q 522 -134 545 -138 q 498 -106 498 -129 l 498 -8 q 281 78 379 9 q 128 254 184 146 q 72 485 72 361 z "},"È":{"ha":822,"x_min":142,"x_max":742,"o":"m 142 26 l 142 946 q 149 965 142 957 q 168 972 157 972 l 715 972 q 734 965 727 972 q 742 946 742 957 l 742 905 q 734 887 742 895 q 715 879 727 879 l 249 879 l 249 541 l 647 541 q 665 532 657 541 q 673 514 673 524 l 673 473 q 666 454 673 462 q 647 447 658 447 l 249 447 l 249 93 l 715 93 q 734 85 727 93 q 742 66 742 77 l 742 26 q 734 8 742 16 q 715 0 727 0 l 168 0 q 149 8 157 0 q 142 26 142 16 m 323 1178 q 313 1190 315 1181 q 315 1207 311 1199 l 340 1257 q 358 1265 345 1265 q 376 1261 371 1266 l 585 1145 q 594 1134 591 1141 q 593 1118 596 1126 l 579 1088 q 569 1079 575 1080 q 547 1084 562 1078 l 323 1178 z "},"É":{"ha":822,"x_min":142,"x_max":742,"o":"m 142 26 l 142 946 q 149 965 142 957 q 168 972 157 972 l 715 972 q 734 965 727 972 q 742 946 742 957 l 742 905 q 734 887 742 895 q 715 879 727 879 l 249 879 l 249 541 l 647 541 q 665 532 657 541 q 673 514 673 524 l 673 473 q 666 454 673 462 q 647 447 658 447 l 249 447 l 249 93 l 715 93 q 734 85 727 93 q 742 66 742 77 l 742 26 q 734 8 742 16 q 715 0 727 0 l 168 0 q 149 8 157 0 q 142 26 142 16 m 315 1118 q 314 1134 312 1126 q 323 1145 317 1141 l 532 1261 q 550 1265 537 1266 q 568 1257 564 1265 l 593 1207 q 595 1190 597 1199 q 585 1178 593 1181 l 361 1084 q 339 1079 346 1078 q 329 1088 333 1080 l 315 1118 z "},"Ê":{"ha":822,"x_min":142,"x_max":742,"o":"m 142 26 l 142 946 q 149 965 142 957 q 168 972 157 972 l 715 972 q 734 965 727 972 q 742 946 742 957 l 742 905 q 734 887 742 895 q 715 879 727 879 l 249 879 l 249 541 l 647 541 q 665 532 657 541 q 673 514 673 524 l 673 473 q 666 454 673 462 q 647 447 658 447 l 249 447 l 249 93 l 715 93 q 734 85 727 93 q 742 66 742 77 l 742 26 q 734 8 742 16 q 715 0 727 0 l 168 0 q 149 8 157 0 q 142 26 142 16 m 248 1101 q 246 1116 243 1109 q 256 1128 249 1123 l 422 1258 q 440 1264 431 1264 q 458 1258 450 1264 l 625 1128 q 635 1116 632 1123 q 633 1101 637 1109 q 626 1090 631 1099 q 618 1077 621 1082 q 609 1068 614 1073 q 596 1065 603 1064 q 582 1071 590 1065 l 440 1168 l 298 1074 q 267 1076 278 1061 l 248 1101 z "},"Ë":{"ha":822,"x_min":142,"x_max":742,"o":"m 142 26 l 142 946 q 149 965 142 957 q 168 972 157 972 l 715 972 q 734 965 727 972 q 742 946 742 957 l 742 905 q 734 887 742 895 q 715 879 727 879 l 249 879 l 249 541 l 647 541 q 665 532 657 541 q 673 514 673 524 l 673 473 q 666 454 673 462 q 647 447 658 447 l 249 447 l 249 93 l 715 93 q 734 85 727 93 q 742 66 742 77 l 742 26 q 734 8 742 16 q 715 0 727 0 l 168 0 q 149 8 157 0 q 142 26 142 16 m 229 1165 q 248 1213 229 1193 q 294 1232 267 1232 q 341 1213 322 1232 q 361 1165 361 1193 q 341 1119 361 1138 q 294 1100 322 1100 q 248 1119 267 1100 q 229 1165 229 1138 m 522 1165 q 541 1213 522 1193 q 587 1232 560 1232 q 635 1213 615 1232 q 654 1165 654 1193 q 635 1119 654 1138 q 587 1100 615 1100 q 541 1119 560 1100 q 522 1165 522 1138 z "},"Ì":{"ha":391,"x_min":55,"x_max":336,"o":"m 65 1178 q 55 1190 57 1181 q 57 1207 53 1199 l 82 1257 q 100 1265 87 1265 q 118 1261 113 1266 l 326 1145 q 336 1134 333 1141 q 335 1118 338 1126 l 321 1088 q 310 1079 317 1080 q 289 1084 304 1078 l 65 1178 m 142 26 l 142 946 q 150 964 142 956 q 168 972 158 972 l 224 972 q 242 964 234 972 q 250 946 250 956 l 250 26 q 242 8 250 16 q 224 0 234 0 l 168 0 q 150 8 158 0 q 142 26 142 16 z "},"Í":{"ha":391,"x_min":56,"x_max":337,"o":"m 57 1118 q 56 1134 54 1126 q 65 1145 58 1141 l 273 1261 q 292 1265 279 1266 q 310 1257 305 1265 l 335 1207 q 337 1190 339 1199 q 326 1178 334 1181 l 103 1084 q 71 1088 77 1074 l 57 1118 m 142 26 l 142 946 q 150 964 142 956 q 168 972 158 972 l 224 972 q 242 964 234 972 q 250 946 250 956 l 250 26 q 242 8 250 16 q 224 0 234 0 l 168 0 q 150 8 158 0 q 142 26 142 16 z "},"Î":{"ha":391,"x_min":1,"x_max":390,"o":"m 3 1101 q 1 1116 -1 1109 q 11 1128 4 1123 l 178 1258 q 196 1264 186 1264 q 214 1258 205 1264 l 380 1128 q 390 1116 387 1123 q 389 1101 393 1109 q 381 1090 387 1098 q 373 1077 376 1082 q 364 1068 370 1073 q 352 1065 359 1064 q 338 1071 346 1065 l 196 1168 l 54 1074 q 22 1076 34 1061 l 3 1101 m 142 26 l 142 946 q 150 964 142 956 q 168 972 158 972 l 224 972 q 242 964 234 972 q 250 946 250 956 l 250 26 q 242 8 250 16 q 224 0 234 0 l 168 0 q 150 8 158 0 q 142 26 142 16 z "},"Ï":{"ha":391,"x_min":-16,"x_max":410,"o":"m -16 1165 q 4 1213 -16 1193 q 50 1232 23 1232 q 97 1213 78 1232 q 117 1165 117 1193 q 97 1119 117 1138 q 50 1100 78 1100 q 4 1119 23 1100 q -16 1165 -16 1138 m 142 26 l 142 946 q 150 964 142 956 q 168 972 158 972 l 224 972 q 242 964 234 972 q 250 946 250 956 l 250 26 q 242 8 250 16 q 224 0 234 0 l 168 0 q 150 8 158 0 q 142 26 142 16 m 278 1165 q 297 1213 278 1193 q 343 1232 316 1232 q 390 1213 371 1232 q 410 1165 410 1193 q 390 1119 410 1138 q 343 1100 371 1100 q 297 1119 316 1100 q 278 1165 278 1138 z "},"Ð":{"ha":1043,"x_min":82,"x_max":971,"o":"m 82 476 l 82 486 q 90 505 82 496 q 107 513 97 513 l 147 513 l 147 946 q 155 964 147 956 q 172 972 162 972 l 484 972 q 672 934 582 972 q 828 830 763 895 q 932 675 894 765 q 971 488 971 586 q 946 334 971 408 q 877 199 922 259 q 771 95 831 140 q 637 25 711 50 q 484 0 563 0 l 172 0 q 155 8 162 0 q 147 26 147 16 l 147 450 l 107 450 q 90 458 97 450 q 82 476 82 466 m 253 96 l 461 96 q 664 145 574 96 q 804 285 753 195 q 854 488 854 374 q 744 768 854 658 q 461 878 633 878 l 253 878 l 253 513 l 546 513 q 565 505 557 513 q 572 486 572 497 l 572 475 q 565 457 572 465 q 546 450 557 450 l 253 450 l 253 96 z "},"Ñ":{"ha":1075,"x_min":142,"x_max":933,"o":"m 142 26 l 142 961 q 150 979 142 971 q 168 986 158 986 l 203 986 l 829 205 l 832 205 l 832 946 q 840 965 832 957 q 859 972 847 972 l 907 972 q 925 964 917 972 q 933 946 933 956 l 933 11 q 925 -6 933 1 q 907 -14 917 -14 l 882 -14 l 244 782 l 243 782 l 243 26 q 235 8 243 16 q 216 0 228 0 l 168 0 q 150 8 158 0 q 142 26 142 16 m 350 1147 q 357 1164 351 1149 q 368 1190 363 1179 q 384 1215 373 1200 q 407 1240 395 1230 q 438 1257 419 1249 q 478 1264 456 1264 q 531 1248 507 1264 q 570 1213 555 1232 q 601 1177 584 1194 q 631 1161 617 1161 q 693 1232 673 1161 q 725 1243 700 1254 l 747 1232 q 754 1227 751 1230 q 757 1221 756 1224 q 757 1214 758 1219 q 756 1208 757 1210 q 754 1201 756 1206 q 753 1196 753 1196 q 629 1083 715 1083 q 579 1099 604 1083 q 538 1135 554 1116 q 506 1171 523 1155 q 476 1187 488 1187 q 453 1181 463 1187 q 435 1163 442 1175 q 424 1142 427 1152 q 415 1118 420 1133 q 403 1102 412 1107 q 380 1104 395 1098 l 355 1117 q 350 1147 340 1124 z "},"Ò":{"ha":1140,"x_min":71,"x_max":1069,"o":"m 71 485 q 110 680 71 587 q 216 840 149 773 q 375 947 282 907 q 570 986 467 986 q 765 947 672 986 q 924 840 857 907 q 1030 680 991 773 q 1069 485 1069 587 q 1030 290 1069 382 q 924 131 991 197 q 765 25 857 64 q 570 -14 672 -14 q 318 53 433 -14 q 137 233 203 119 q 71 485 71 348 m 222 687 q 195 640 222 687 q 168 485 168 593 q 222 284 168 376 q 369 137 276 191 q 570 83 461 83 q 771 137 678 83 q 918 284 864 191 q 972 485 972 376 q 918 687 972 593 q 771 834 864 780 q 570 889 678 889 q 369 834 461 889 q 222 687 276 780 m 453 1178 q 443 1190 445 1181 q 444 1207 440 1199 l 469 1257 q 487 1265 474 1265 q 505 1261 500 1266 l 714 1145 q 723 1134 721 1141 q 722 1118 726 1126 l 708 1088 q 697 1079 704 1080 q 676 1084 691 1078 l 453 1178 z "},"Ó":{"ha":1140,"x_min":71,"x_max":1069,"o":"m 71 485 q 110 680 71 587 q 216 840 149 773 q 375 947 282 907 q 570 986 467 986 q 765 947 672 986 q 924 840 857 907 q 1030 680 991 773 q 1069 485 1069 587 q 1030 290 1069 382 q 924 131 991 197 q 765 25 857 64 q 570 -14 672 -14 q 318 53 433 -14 q 137 233 203 119 q 71 485 71 348 m 222 687 q 195 640 222 687 q 168 485 168 593 q 222 284 168 376 q 369 137 276 191 q 570 83 461 83 q 771 137 678 83 q 918 284 864 191 q 972 485 972 376 q 918 687 972 593 q 771 834 864 780 q 570 889 678 889 q 369 834 461 889 q 222 687 276 780 m 444 1118 q 444 1134 441 1126 q 453 1145 446 1141 l 661 1261 q 680 1265 667 1266 q 697 1257 692 1265 l 722 1207 q 724 1190 726 1199 q 714 1178 722 1181 l 490 1084 q 469 1079 475 1078 q 458 1088 463 1080 l 444 1118 z "},"Ô":{"ha":1140,"x_min":71,"x_max":1069,"o":"m 71 485 q 110 680 71 587 q 216 840 149 773 q 375 947 282 907 q 570 986 467 986 q 765 947 672 986 q 924 840 857 907 q 1030 680 991 773 q 1069 485 1069 587 q 1030 290 1069 382 q 924 131 991 197 q 765 25 857 64 q 570 -14 672 -14 q 318 53 433 -14 q 137 233 203 119 q 71 485 71 348 m 222 687 q 195 640 222 687 q 168 485 168 593 q 222 284 168 376 q 369 137 276 191 q 570 83 461 83 q 771 137 678 83 q 918 284 864 191 q 972 485 972 376 q 918 687 972 593 q 771 834 864 780 q 570 889 678 889 q 369 834 461 889 q 222 687 276 780 m 376 1101 q 375 1116 372 1109 q 385 1128 378 1123 l 551 1258 q 570 1264 559 1264 q 587 1258 579 1264 l 754 1128 q 764 1116 761 1123 q 762 1101 766 1109 q 755 1090 760 1098 q 747 1077 750 1082 q 738 1068 743 1073 q 726 1065 732 1064 q 711 1071 720 1065 l 570 1168 l 428 1074 q 396 1076 408 1061 l 376 1101 z "},"Õ":{"ha":1140,"x_min":71,"x_max":1069,"o":"m 71 485 q 110 680 71 587 q 216 840 149 773 q 375 947 282 907 q 570 986 467 986 q 765 947 672 986 q 924 840 857 907 q 1030 680 991 773 q 1069 485 1069 587 q 1030 290 1069 382 q 924 131 991 197 q 765 25 857 64 q 570 -14 672 -14 q 318 53 433 -14 q 137 233 203 119 q 71 485 71 348 m 222 687 q 195 640 222 687 q 168 485 168 593 q 222 284 168 376 q 369 137 276 191 q 570 83 461 83 q 771 137 678 83 q 918 284 864 191 q 972 485 972 376 q 918 687 972 593 q 771 834 864 780 q 570 889 678 889 q 369 834 461 889 q 222 687 276 780 m 366 1147 q 373 1164 367 1150 q 384 1189 379 1179 q 399 1215 389 1200 q 422 1240 410 1230 q 453 1257 434 1250 q 493 1264 471 1264 q 546 1248 522 1264 q 585 1213 570 1232 q 615 1177 599 1194 q 646 1161 632 1161 q 708 1232 688 1161 q 741 1243 715 1255 l 762 1232 q 768 1229 766 1231 q 771 1223 770 1226 q 773 1218 772 1220 q 772 1211 773 1215 q 771 1205 772 1207 q 770 1200 771 1204 q 768 1196 768 1196 q 754 1161 762 1177 q 731 1125 745 1144 q 694 1095 716 1106 q 644 1083 671 1083 q 594 1099 618 1083 q 554 1135 569 1116 q 521 1171 538 1155 q 492 1187 504 1187 q 468 1181 479 1187 q 450 1163 458 1175 q 439 1142 443 1152 q 431 1118 435 1133 q 419 1102 427 1107 q 396 1104 410 1098 l 371 1117 q 366 1147 356 1124 z "},"Ö":{"ha":1140,"x_min":71,"x_max":1069,"o":"m 71 485 q 110 680 71 587 q 216 840 149 773 q 375 947 282 907 q 570 986 467 986 q 765 947 672 986 q 924 840 857 907 q 1030 680 991 773 q 1069 485 1069 587 q 1030 290 1069 382 q 924 131 991 197 q 765 25 857 64 q 570 -14 672 -14 q 318 53 433 -14 q 137 233 203 119 q 71 485 71 348 m 222 687 q 195 640 222 687 q 168 485 168 593 q 222 284 168 376 q 369 137 276 191 q 570 83 461 83 q 771 137 678 83 q 918 284 864 191 q 972 485 972 376 q 918 687 972 593 q 771 834 864 780 q 570 889 678 889 q 369 834 461 889 q 222 687 276 780 m 358 1165 q 377 1213 358 1193 q 424 1232 397 1232 q 471 1213 452 1232 q 490 1165 490 1193 q 471 1119 490 1138 q 424 1100 452 1100 q 377 1119 397 1100 q 358 1165 358 1138 m 652 1165 q 671 1213 652 1193 q 717 1232 690 1232 q 764 1213 745 1232 q 783 1165 783 1193 q 764 1119 783 1138 q 717 1100 745 1100 q 671 1119 690 1100 q 652 1165 652 1138 z "},"×":{"ha":668,"x_min":109,"x_max":561,"o":"m 115 292 q 109 309 109 298 q 115 328 109 320 l 269 482 l 115 636 q 109 654 109 643 q 115 673 109 666 l 142 701 q 161 708 149 708 q 179 701 172 708 l 334 547 l 489 703 q 507 709 496 709 q 525 701 517 709 l 553 673 q 561 655 560 666 q 554 637 561 645 l 399 482 l 554 328 q 561 309 561 319 q 553 290 560 298 l 525 264 q 507 256 517 256 q 489 262 496 256 l 334 418 l 179 264 q 161 256 172 256 q 143 264 151 256 l 115 292 z "},"Ø":{"ha":1140,"x_min":71,"x_max":1069,"o":"m 71 485 q 110 680 71 587 q 216 840 149 773 q 375 947 282 907 q 570 986 467 986 q 749 953 663 986 q 903 860 835 920 l 990 947 q 1008 955 997 955 q 1026 947 1019 955 l 1034 940 q 1040 922 1040 933 q 1034 904 1040 911 l 946 817 q 1037 663 1004 749 q 1069 485 1069 578 q 1030 290 1069 382 q 924 131 991 197 q 765 25 857 64 q 570 -14 672 -14 q 390 18 475 -14 q 239 109 305 50 l 154 24 q 136 17 146 17 q 118 25 125 18 l 113 31 q 105 48 105 38 q 111 66 104 59 l 196 151 q 71 485 71 294 m 168 485 q 267 222 168 336 l 833 790 q 570 889 719 889 q 369 834 461 889 q 222 687 276 780 q 168 485 168 593 m 310 179 q 430 109 363 134 q 570 83 497 83 q 771 137 678 83 q 918 284 864 191 q 972 485 972 376 q 947 626 972 558 q 875 746 921 694 l 310 179 z "},"Ù":{"ha":994,"x_min":129,"x_max":865,"o":"m 129 358 l 129 946 q 137 964 129 956 q 155 972 145 972 l 208 972 q 227 965 220 972 q 235 946 235 957 l 235 367 q 306 165 235 245 q 496 85 376 85 q 688 164 616 85 q 760 364 760 243 l 760 946 q 767 965 760 957 q 786 972 774 972 l 839 972 q 857 964 849 972 q 865 946 865 956 l 865 358 q 762 92 865 198 q 496 -14 659 -14 q 304 35 389 -14 q 175 169 220 84 q 129 358 129 253 m 364 1178 q 354 1190 356 1181 q 355 1207 351 1199 l 380 1257 q 398 1265 385 1265 q 416 1261 411 1266 l 625 1145 q 634 1134 632 1141 q 633 1118 637 1126 l 619 1088 q 609 1079 615 1080 q 587 1084 602 1078 l 364 1178 z "},"Ú":{"ha":994,"x_min":129,"x_max":865,"o":"m 129 358 l 129 946 q 137 964 129 956 q 155 972 145 972 l 208 972 q 227 965 220 972 q 235 946 235 957 l 235 367 q 306 165 235 245 q 496 85 376 85 q 688 164 616 85 q 760 364 760 243 l 760 946 q 767 965 760 957 q 786 972 774 972 l 839 972 q 857 964 849 972 q 865 946 865 956 l 865 358 q 762 92 865 198 q 496 -14 659 -14 q 304 35 389 -14 q 175 169 220 84 q 129 358 129 253 m 355 1118 q 355 1134 352 1126 q 364 1145 357 1141 l 572 1261 q 591 1265 578 1266 q 608 1257 604 1265 l 633 1207 q 635 1190 637 1199 q 625 1178 633 1181 l 401 1084 q 380 1079 387 1078 q 370 1088 374 1080 l 355 1118 z "},"Û":{"ha":994,"x_min":129,"x_max":865,"o":"m 129 358 l 129 946 q 137 964 129 956 q 155 972 145 972 l 208 972 q 227 965 220 972 q 235 946 235 957 l 235 367 q 306 165 235 245 q 496 85 376 85 q 688 164 616 85 q 760 364 760 243 l 760 946 q 767 965 760 957 q 786 972 774 972 l 839 972 q 857 964 849 972 q 865 946 865 956 l 865 358 q 762 92 865 198 q 496 -14 659 -14 q 304 35 389 -14 q 175 169 220 84 q 129 358 129 253 m 297 1101 q 296 1116 293 1109 q 306 1128 299 1123 l 472 1258 q 490 1264 480 1264 q 509 1258 500 1264 l 675 1128 q 685 1116 682 1123 q 684 1101 688 1109 q 676 1090 682 1099 q 668 1077 671 1082 q 659 1068 665 1073 q 647 1065 653 1064 q 632 1071 640 1065 l 490 1168 l 349 1074 q 317 1076 328 1061 l 297 1101 z "},"Ü":{"ha":994,"x_min":129,"x_max":865,"o":"m 129 358 l 129 946 q 137 964 129 956 q 155 972 145 972 l 208 972 q 227 965 220 972 q 235 946 235 957 l 235 367 q 306 165 235 245 q 496 85 376 85 q 688 164 616 85 q 760 364 760 243 l 760 946 q 767 965 760 957 q 786 972 774 972 l 839 972 q 857 964 849 972 q 865 946 865 956 l 865 358 q 762 92 865 198 q 496 -14 659 -14 q 304 35 389 -14 q 175 169 220 84 q 129 358 129 253 m 283 1165 q 302 1213 283 1193 q 349 1232 321 1232 q 396 1213 376 1232 q 415 1165 415 1193 q 396 1119 415 1138 q 349 1100 376 1100 q 302 1119 321 1100 q 283 1165 283 1138 m 576 1165 q 595 1213 576 1193 q 642 1232 614 1232 q 689 1213 669 1232 q 708 1165 708 1193 q 689 1119 708 1138 q 642 1100 669 1100 q 595 1119 614 1100 q 576 1165 576 1138 z "},"Ý":{"ha":785,"x_min":1,"x_max":785,"o":"m 3 932 q 2 959 -5 945 q 25 972 9 972 l 90 972 q 113 960 103 972 l 393 572 l 673 960 q 696 972 683 972 l 761 972 q 784 959 777 972 q 783 932 791 945 l 444 469 l 444 26 q 436 8 444 16 q 418 0 428 0 l 364 0 q 345 8 353 0 q 338 26 338 16 l 338 468 l 3 932 m 254 1118 q 253 1134 251 1126 q 262 1145 256 1141 l 471 1261 q 489 1265 476 1266 q 507 1257 503 1265 l 532 1207 q 534 1190 536 1199 q 524 1178 532 1181 l 300 1084 q 278 1079 285 1078 q 268 1088 272 1080 l 254 1118 z "},"Þ":{"ha":829,"x_min":142,"x_max":786,"o":"m 142 26 l 142 945 q 149 964 142 956 q 168 972 157 972 l 221 972 q 239 964 231 972 q 248 946 248 956 l 248 798 l 475 798 q 694 707 603 798 q 786 490 786 616 q 695 270 786 361 q 476 178 604 178 l 248 178 l 248 26 q 239 8 248 16 q 221 0 231 0 l 168 0 q 149 8 157 0 q 142 26 142 16 m 248 281 l 468 281 q 616 342 554 281 q 679 493 679 404 q 616 634 679 576 q 468 692 554 692 l 248 692 l 248 281 z "},"ß":{"ha":751,"x_min":100,"x_max":704,"o":"m 100 26 l 100 571 q 174 881 100 777 q 392 986 249 986 q 479 974 438 986 q 553 938 519 962 q 606 872 587 913 q 625 777 625 831 q 606 684 625 731 q 563 605 587 637 q 520 541 540 574 q 501 489 501 509 q 522 453 501 474 q 573 406 543 431 q 632 350 602 380 q 683 276 662 319 q 704 184 704 232 q 685 95 704 134 q 633 33 666 56 q 561 -2 600 9 q 476 -14 521 -14 q 396 -4 434 -14 q 342 12 357 5 q 329 19 334 16 q 321 29 325 22 q 321 45 318 36 l 332 86 q 361 103 338 115 q 476 71 419 71 q 568 102 534 71 q 603 186 603 134 q 581 253 603 220 q 529 314 559 286 q 467 369 498 342 q 415 426 437 395 q 393 485 393 456 q 414 554 393 513 q 460 629 435 594 q 506 704 485 663 q 526 772 526 744 q 485 866 526 832 q 389 900 443 900 q 197 570 197 900 l 197 26 q 189 8 197 16 q 171 0 181 0 l 126 0 q 108 8 116 0 q 100 26 100 16 z "},"à":{"ha":582,"x_min":58,"x_max":489,"o":"m 58 168 q 117 301 58 250 q 281 353 176 353 q 337 348 307 353 q 382 339 366 344 l 399 335 q 382 451 400 418 q 309 485 365 485 q 142 454 222 485 q 115 468 122 447 l 104 503 q 119 533 98 524 q 150 545 128 537 q 218 561 171 552 q 313 570 266 570 q 452 516 415 570 q 489 335 489 463 l 489 26 q 481 8 489 16 q 463 0 473 0 l 436 0 q 420 5 425 0 q 412 21 416 10 l 401 58 q 229 -14 330 -14 q 107 36 155 -14 q 58 168 58 86 m 147 168 q 174 97 147 125 q 244 69 200 69 q 335 93 292 69 q 397 147 377 117 l 397 257 q 281 279 357 279 q 184 250 220 279 q 147 168 147 221 m 178 869 q 168 881 170 872 q 170 899 165 890 l 195 949 q 212 957 199 957 q 231 953 225 958 l 439 836 q 448 825 446 833 q 447 810 450 818 l 433 779 q 423 771 429 771 q 401 777 416 770 l 178 869 z "},"á":{"ha":582,"x_min":58,"x_max":489,"o":"m 58 168 q 117 301 58 250 q 281 353 176 353 q 337 348 307 353 q 382 339 366 344 l 399 335 q 382 451 400 418 q 309 485 365 485 q 142 454 222 485 q 115 468 122 447 l 104 503 q 119 533 98 524 q 150 545 128 537 q 218 561 171 552 q 313 570 266 570 q 452 516 415 570 q 489 335 489 463 l 489 26 q 481 8 489 16 q 463 0 473 0 l 436 0 q 420 5 425 0 q 412 21 416 10 l 401 58 q 229 -14 330 -14 q 107 36 155 -14 q 58 168 58 86 m 147 168 q 174 97 147 125 q 244 69 200 69 q 335 93 292 69 q 397 147 377 117 l 397 257 q 281 279 357 279 q 184 250 220 279 q 147 168 147 221 m 158 810 q 157 825 155 818 q 167 836 160 833 l 375 953 q 393 957 380 958 q 411 949 406 957 l 436 899 q 438 881 440 890 q 428 869 436 872 l 204 777 q 183 771 189 770 q 172 779 176 771 l 158 810 z "},"â":{"ha":582,"x_min":58,"x_max":489,"o":"m 58 168 q 117 301 58 250 q 281 353 176 353 q 337 348 307 353 q 382 339 366 344 l 399 335 q 382 451 400 418 q 309 485 365 485 q 142 454 222 485 q 115 468 122 447 l 104 503 q 119 533 98 524 q 150 545 128 537 q 218 561 171 552 q 313 570 266 570 q 452 516 415 570 q 489 335 489 463 l 489 26 q 481 8 489 16 q 463 0 473 0 l 436 0 q 420 5 425 0 q 412 21 416 10 l 401 58 q 229 -14 330 -14 q 107 36 155 -14 q 58 168 58 86 m 93 796 q 102 822 83 810 l 268 953 q 286 958 275 958 q 304 953 297 958 l 471 822 q 479 796 489 810 q 472 785 477 793 q 464 772 467 777 q 455 763 460 768 q 443 759 449 758 q 428 765 436 760 l 286 863 l 144 768 q 113 771 124 755 l 93 796 m 147 168 q 174 97 147 125 q 244 69 200 69 q 335 93 292 69 q 397 147 377 117 l 397 257 q 281 279 357 279 q 184 250 220 279 q 147 168 147 221 z "},"ã":{"ha":582,"x_min":58,"x_max":491,"o":"m 58 168 q 117 301 58 250 q 281 353 176 353 q 337 348 307 353 q 382 339 366 344 l 399 335 q 382 451 400 418 q 309 485 365 485 q 142 454 222 485 q 115 468 122 447 l 104 503 q 119 533 98 524 q 150 545 128 537 q 218 561 171 552 q 313 570 266 570 q 452 516 415 570 q 489 335 489 463 l 489 26 q 481 8 489 16 q 463 0 473 0 l 436 0 q 420 5 425 0 q 412 21 416 10 l 401 58 q 229 -14 330 -14 q 107 36 155 -14 q 58 168 58 86 m 83 842 q 91 859 85 844 q 102 883 97 873 q 117 909 106 894 q 140 934 128 924 q 171 951 152 944 q 211 958 189 958 q 254 948 234 958 q 289 922 275 937 q 315 892 303 907 q 340 866 328 877 q 364 856 353 856 q 427 926 406 856 q 458 937 433 948 l 481 926 q 487 921 485 924 q 490 916 490 918 q 491 909 491 913 q 490 902 490 905 q 488 896 490 900 q 486 890 486 891 q 363 778 448 778 q 312 794 337 778 q 272 830 288 810 q 239 865 256 849 q 210 882 222 882 q 186 876 197 882 q 168 858 176 869 q 157 836 161 846 q 149 812 153 827 q 137 797 145 801 q 114 799 128 793 l 89 811 q 83 842 74 819 m 147 168 q 174 97 147 125 q 244 69 200 69 q 335 93 292 69 q 397 147 377 117 l 397 257 q 281 279 357 279 q 184 250 220 279 q 147 168 147 221 z "},"ä":{"ha":582,"x_min":58,"x_max":504,"o":"m 58 168 q 117 301 58 250 q 281 353 176 353 q 337 348 307 353 q 382 339 366 344 l 399 335 q 382 451 400 418 q 309 485 365 485 q 142 454 222 485 q 115 468 122 447 l 104 503 q 119 533 98 524 q 150 545 128 537 q 218 561 171 552 q 313 570 266 570 q 452 516 415 570 q 489 335 489 463 l 489 26 q 481 8 489 16 q 463 0 473 0 l 436 0 q 420 5 425 0 q 412 21 416 10 l 401 58 q 229 -14 330 -14 q 107 36 155 -14 q 58 168 58 86 m 104 878 q 123 925 104 905 q 170 945 142 945 q 217 925 197 945 q 236 878 236 905 q 217 831 236 850 q 170 812 197 812 q 123 831 142 812 q 104 878 104 850 m 147 168 q 174 97 147 125 q 244 69 200 69 q 335 93 292 69 q 397 147 377 117 l 397 257 q 281 279 357 279 q 184 250 220 279 q 147 168 147 221 m 372 878 q 391 925 372 905 q 437 945 410 945 q 485 925 465 945 q 504 878 504 905 q 485 831 504 850 q 437 812 465 812 q 391 831 410 812 q 372 878 372 850 z "},"å":{"ha":582,"x_min":58,"x_max":489,"o":"m 58 168 q 117 301 58 250 q 281 353 176 353 q 337 348 307 353 q 382 339 366 344 l 399 335 q 382 451 400 418 q 309 485 365 485 q 142 454 222 485 q 115 468 122 447 l 104 503 q 119 533 98 524 q 150 545 128 537 q 218 561 171 552 q 313 570 266 570 q 452 516 415 570 q 489 335 489 463 l 489 26 q 481 8 489 16 q 463 0 473 0 l 436 0 q 420 5 425 0 q 412 21 416 10 l 401 58 q 229 -14 330 -14 q 107 36 155 -14 q 58 168 58 86 m 180 727 q 158 749 180 727 q 136 835 136 771 q 180 942 136 899 q 288 986 224 986 q 395 942 351 986 q 439 835 439 898 q 395 728 439 772 q 288 684 351 684 q 180 727 224 684 m 147 168 q 174 97 147 125 q 244 69 200 69 q 335 93 292 69 q 397 147 377 117 l 397 257 q 281 279 357 279 q 184 250 220 279 q 147 168 147 221 m 228 892 q 215 880 228 892 q 203 835 203 868 q 228 776 203 802 q 288 750 254 750 q 345 775 321 750 q 370 835 370 801 q 346 892 370 868 q 288 917 321 917 q 228 892 254 917 z "},"æ":{"ha":958,"x_min":60,"x_max":905,"o":"m 60 172 q 115 302 60 252 q 265 351 170 351 q 330 349 298 351 q 377 345 361 347 l 392 343 q 378 457 393 426 q 314 488 363 488 q 279 486 296 488 q 245 482 262 485 q 217 477 229 479 q 190 471 204 475 q 169 465 176 467 q 150 458 162 463 q 138 454 138 454 q 119 457 127 452 q 109 473 111 463 l 102 509 q 123 536 98 530 q 151 546 134 540 q 220 561 169 551 q 318 570 271 570 q 419 550 385 570 q 469 493 454 531 q 656 570 548 570 q 834 499 762 570 q 905 315 905 428 q 905 294 905 302 q 902 275 904 285 q 893 259 899 264 q 878 254 887 254 l 489 254 l 489 170 q 561 101 514 126 q 664 77 607 77 q 802 115 739 77 q 808 119 804 117 q 814 122 813 121 q 819 125 816 123 q 824 127 823 127 q 828 127 826 127 q 832 126 831 127 q 836 123 834 125 q 840 118 838 121 l 864 86 q 872 75 870 79 q 871 64 873 71 q 859 50 869 58 q 772 6 826 25 q 654 -14 719 -14 q 444 85 518 -14 q 359 15 414 44 q 241 -14 304 -14 q 110 37 160 -14 q 60 172 60 88 m 186 248 q 166 233 186 248 q 147 170 147 219 q 180 95 147 120 q 260 69 213 69 q 338 91 300 69 q 395 140 375 112 l 395 264 q 279 277 355 277 q 186 248 224 277 m 492 334 l 811 334 q 763 441 808 398 q 654 484 718 484 q 559 457 605 484 q 492 390 514 430 l 492 334 z "},"ç":{"ha":615,"x_min":58,"x_max":559,"o":"m 58 277 q 98 425 58 357 q 204 531 138 492 q 345 570 270 570 q 543 472 467 570 q 549 452 550 463 q 538 433 547 441 l 511 411 q 500 403 505 406 q 491 401 496 400 q 485 404 486 403 q 477 410 483 405 q 471 416 471 416 q 343 475 420 475 q 211 418 264 475 q 158 278 158 361 q 211 136 158 194 q 342 78 264 78 q 374 80 359 78 q 402 87 389 82 q 424 96 416 93 q 444 109 433 100 q 460 122 456 119 q 476 137 465 125 q 489 150 487 148 q 510 162 503 162 q 530 153 517 161 l 546 142 q 559 124 556 134 q 555 103 562 113 q 476 24 526 55 q 364 -12 426 -7 l 364 -74 q 470 -120 430 -82 q 510 -216 510 -157 q 468 -319 510 -277 q 364 -361 426 -361 q 305 -348 334 -361 q 258 -313 277 -334 q 251 -293 250 -303 q 258 -277 251 -282 l 278 -261 q 295 -255 286 -256 q 310 -261 304 -255 q 367 -286 333 -286 q 411 -268 395 -286 q 428 -221 428 -250 q 417 -182 428 -199 q 387 -156 407 -165 q 351 -142 368 -146 q 313 -134 335 -138 q 289 -106 289 -129 l 289 -8 q 124 89 191 10 q 58 277 58 168 z "},"è":{"ha":634,"x_min":58,"x_max":582,"o":"m 58 278 q 133 485 58 400 q 330 570 208 570 q 511 497 439 570 q 582 315 582 425 q 579 278 582 297 q 571 261 578 268 q 554 254 564 254 l 154 254 q 213 129 158 183 q 340 74 268 74 q 478 115 411 74 q 485 119 480 117 q 491 122 490 121 q 496 125 492 123 q 501 127 499 127 q 505 127 503 127 q 509 126 507 127 q 513 123 511 125 q 517 118 515 121 q 529 102 521 113 q 541 86 536 92 q 549 70 549 78 q 534 50 549 61 q 449 6 504 26 q 330 -14 395 -14 q 133 71 208 -14 q 58 278 58 155 m 155 332 l 486 332 q 438 439 483 393 q 330 485 393 485 q 212 441 261 485 q 155 332 163 397 m 199 869 q 189 881 191 872 q 191 899 186 890 l 215 949 q 233 957 220 957 q 252 953 246 958 l 460 836 q 469 825 467 833 q 468 810 471 818 l 454 779 q 444 771 450 771 q 422 777 437 770 l 199 869 z "},"é":{"ha":634,"x_min":58,"x_max":582,"o":"m 58 278 q 133 485 58 400 q 330 570 208 570 q 511 497 439 570 q 582 315 582 425 q 579 278 582 297 q 571 261 578 268 q 554 254 564 254 l 154 254 q 213 129 158 183 q 340 74 268 74 q 478 115 411 74 q 485 119 480 117 q 491 122 490 121 q 496 125 492 123 q 501 127 499 127 q 505 127 503 127 q 509 126 507 127 q 513 123 511 125 q 517 118 515 121 q 529 102 521 113 q 541 86 536 92 q 549 70 549 78 q 534 50 549 61 q 449 6 504 26 q 330 -14 395 -14 q 133 71 208 -14 q 58 278 58 155 m 155 332 l 486 332 q 438 439 483 393 q 330 485 393 485 q 212 441 261 485 q 155 332 163 397 m 186 810 q 185 825 182 818 q 195 836 188 833 l 403 953 q 421 957 408 958 q 439 949 434 957 l 464 899 q 466 881 468 890 q 456 869 464 872 l 232 777 q 211 771 217 770 q 200 779 204 771 l 186 810 z "},"ê":{"ha":634,"x_min":58,"x_max":582,"o":"m 58 278 q 133 485 58 400 q 330 570 208 570 q 511 497 439 570 q 582 315 582 425 q 579 278 582 297 q 571 261 578 268 q 554 254 564 254 l 154 254 q 213 129 158 183 q 340 74 268 74 q 478 115 411 74 q 485 119 480 117 q 491 122 490 121 q 496 125 492 123 q 501 127 499 127 q 505 127 503 127 q 509 126 507 127 q 513 123 511 125 q 517 118 515 121 q 529 102 521 113 q 541 86 536 92 q 549 70 549 78 q 534 50 549 61 q 449 6 504 26 q 330 -14 395 -14 q 133 71 208 -14 q 58 278 58 155 m 140 796 q 139 810 136 804 q 149 822 142 817 l 315 953 q 334 958 323 958 q 351 953 344 958 l 518 822 q 528 810 525 817 q 526 796 530 804 q 519 785 524 793 q 511 772 514 777 q 502 763 507 768 q 489 759 496 758 q 475 765 483 760 l 334 863 l 192 768 q 160 771 172 755 l 140 796 m 155 332 l 486 332 q 438 439 483 393 q 330 485 393 485 q 212 441 261 485 q 155 332 163 397 z "},"ë":{"ha":634,"x_min":58,"x_max":582,"o":"m 58 278 q 133 485 58 400 q 330 570 208 570 q 511 497 439 570 q 582 315 582 425 q 579 278 582 297 q 571 261 578 268 q 554 254 564 254 l 154 254 q 213 129 158 183 q 340 74 268 74 q 478 115 411 74 q 485 119 480 117 q 491 122 490 121 q 496 125 492 123 q 501 127 499 127 q 505 127 503 127 q 509 126 507 127 q 513 123 511 125 q 517 118 515 121 q 529 102 521 113 q 541 86 536 92 q 549 70 549 78 q 534 50 549 61 q 449 6 504 26 q 330 -14 395 -14 q 133 71 208 -14 q 58 278 58 155 m 129 878 q 148 925 129 905 q 195 945 168 945 q 242 925 222 945 q 261 878 261 905 q 242 831 261 850 q 195 812 222 812 q 148 831 168 812 q 129 878 129 850 m 155 332 l 486 332 q 438 439 483 393 q 330 485 393 485 q 212 441 261 485 q 155 332 163 397 m 397 878 q 416 925 397 905 q 463 945 435 945 q 510 925 490 945 q 529 878 529 905 q 510 831 529 850 q 463 812 490 812 q 416 831 435 812 q 397 878 397 850 z "},"ì":{"ha":293,"x_min":6,"x_max":288,"o":"m 17 869 q 6 881 9 872 q 8 899 4 890 l 33 949 q 51 957 38 957 q 69 953 64 958 l 278 836 q 287 825 285 833 q 286 810 290 818 l 272 779 q 261 771 268 771 q 240 777 255 770 l 17 869 m 98 26 l 98 529 q 106 547 98 539 q 125 555 115 555 l 168 555 q 186 547 178 555 q 195 529 195 539 l 195 26 q 186 8 195 16 q 168 0 178 0 l 125 0 q 106 8 115 0 q 98 26 98 16 z "},"í":{"ha":293,"x_min":7,"x_max":288,"o":"m 8 810 q 7 825 5 818 q 17 836 10 833 l 225 953 q 243 957 231 958 q 261 949 256 957 l 286 899 q 288 881 290 890 q 278 869 286 872 l 54 777 q 33 771 39 770 q 22 779 26 771 l 8 810 m 98 26 l 98 529 q 106 547 98 539 q 125 555 115 555 l 168 555 q 186 547 178 555 q 195 529 195 539 l 195 26 q 186 8 195 16 q 168 0 178 0 l 125 0 q 106 8 115 0 q 98 26 98 16 z "},"î":{"ha":293,"x_min":-45,"x_max":343,"o":"m -45 796 q -36 822 -54 810 l 131 953 q 149 958 138 958 q 167 953 159 958 l 334 822 q 343 810 340 817 q 342 796 346 804 q 335 785 340 793 q 326 772 330 777 q 317 763 323 768 q 305 759 311 758 q 290 765 298 760 l 149 863 l 7 768 q -25 771 -14 755 l -45 796 m 98 26 l 98 529 q 106 547 98 539 q 125 555 115 555 l 168 555 q 186 547 178 555 q 195 529 195 539 l 195 26 q 186 8 195 16 q 168 0 178 0 l 125 0 q 106 8 115 0 q 98 26 98 16 z "},"ï":{"ha":293,"x_min":-53,"x_max":347,"o":"m -53 878 q -34 925 -53 905 q 12 945 -15 945 q 60 925 40 945 q 79 878 79 905 q 60 831 79 850 q 12 812 40 812 q -34 831 -15 812 q -53 878 -53 850 m 98 26 l 98 529 q 106 547 98 539 q 125 555 115 555 l 168 555 q 186 547 178 555 q 195 529 195 539 l 195 26 q 186 8 195 16 q 168 0 178 0 l 125 0 q 106 8 115 0 q 98 26 98 16 m 215 878 q 234 925 215 905 q 281 945 254 945 q 328 925 309 945 q 347 878 347 905 q 328 831 347 850 q 281 812 309 812 q 234 831 254 812 q 215 878 215 850 z "},"ð":{"ha":755,"x_min":57,"x_max":688,"o":"m 57 304 q 82 429 57 372 q 148 525 106 486 q 242 584 189 563 q 355 606 296 606 q 461 590 408 606 q 541 559 514 574 l 567 543 q 389 782 534 669 l 254 704 q 234 703 245 699 q 220 714 224 706 l 214 724 q 211 743 208 732 q 222 758 214 753 l 334 822 q 196 896 254 873 q 184 929 173 905 l 203 966 q 231 977 210 983 q 422 873 335 936 l 519 929 q 540 932 530 935 q 555 920 550 929 l 561 909 q 563 891 566 901 q 551 875 560 881 l 476 832 q 688 382 688 648 q 668 227 688 297 q 611 102 649 156 q 509 17 572 47 q 364 -14 446 -14 q 205 30 276 -14 q 96 145 134 73 q 57 304 57 218 m 217 452 q 186 420 217 452 q 155 298 155 389 q 216 143 155 208 q 364 78 277 78 q 448 94 410 78 q 511 137 486 110 q 555 199 536 164 q 580 273 573 235 q 590 351 587 312 q 585 425 592 391 q 574 435 581 429 q 545 456 567 441 q 498 484 522 472 q 438 506 474 496 q 366 515 401 515 q 217 452 278 515 z "},"ñ":{"ha":687,"x_min":98,"x_max":596,"o":"m 98 26 l 98 529 q 106 547 98 539 q 125 555 115 555 l 151 555 q 174 539 170 555 l 186 496 q 195 504 189 498 q 221 522 201 509 q 262 544 241 534 q 316 562 283 553 q 380 570 348 570 q 596 319 596 570 l 596 26 q 588 8 596 16 q 570 0 580 0 l 525 0 q 507 8 515 0 q 498 26 498 16 l 498 319 q 466 437 498 397 q 374 476 433 476 q 315 468 345 476 q 265 448 286 460 q 228 425 244 437 q 203 406 212 414 l 195 397 l 195 26 q 186 8 195 16 q 168 0 178 0 l 125 0 q 106 8 115 0 q 98 26 98 16 m 146 842 q 153 859 147 844 q 164 883 159 873 q 180 909 169 894 q 202 934 191 924 q 233 951 214 944 q 273 958 252 958 q 317 948 296 958 q 351 922 337 937 q 378 892 366 907 q 402 866 390 877 q 427 856 415 856 q 489 926 469 856 q 521 937 496 948 l 543 926 q 550 921 547 924 q 553 916 552 918 q 553 909 553 913 q 552 902 553 905 q 550 896 552 900 q 549 890 549 891 q 425 778 511 778 q 375 794 399 778 q 334 830 350 810 q 301 865 319 849 q 272 882 284 882 q 249 876 259 882 q 231 858 238 869 q 219 836 223 846 q 211 812 216 827 q 199 797 208 801 q 176 799 191 793 l 151 811 q 146 842 136 819 z "},"ò":{"ha":669,"x_min":58,"x_max":611,"o":"m 58 279 q 139 484 58 397 q 335 570 220 570 q 474 530 410 570 q 574 424 538 490 q 611 279 611 357 q 530 73 611 159 q 335 -14 450 -14 q 196 26 260 -14 q 95 133 132 66 q 58 279 58 201 m 154 279 q 207 136 154 195 q 335 77 259 77 q 463 136 411 77 q 515 279 515 195 q 463 420 515 362 q 335 478 411 478 q 207 420 259 478 q 154 279 154 362 m 204 869 q 194 881 196 872 q 196 899 192 890 l 221 949 q 239 957 226 957 q 257 953 252 958 l 465 836 q 474 825 472 833 q 473 810 477 818 l 460 779 q 449 771 456 771 q 428 777 443 770 l 204 869 z "},"ó":{"ha":669,"x_min":58,"x_max":611,"o":"m 58 279 q 139 484 58 397 q 335 570 220 570 q 474 530 410 570 q 574 424 538 490 q 611 279 611 357 q 530 73 611 159 q 335 -14 450 -14 q 196 26 260 -14 q 95 133 132 66 q 58 279 58 201 m 154 279 q 207 136 154 195 q 335 77 259 77 q 463 136 411 77 q 515 279 515 195 q 463 420 515 362 q 335 478 411 478 q 207 420 259 478 q 154 279 154 362 m 196 810 q 195 825 193 818 q 204 836 197 833 l 412 953 q 431 957 418 958 q 449 949 444 957 l 473 899 q 475 881 477 890 q 465 869 473 872 l 241 777 q 220 771 227 770 q 210 779 214 771 l 196 810 z "},"ô":{"ha":669,"x_min":58,"x_max":611,"o":"m 58 279 q 139 484 58 397 q 335 570 220 570 q 474 530 410 570 q 574 424 538 490 q 611 279 611 357 q 530 73 611 159 q 335 -14 450 -14 q 196 26 260 -14 q 95 133 132 66 q 58 279 58 201 m 142 796 q 140 810 138 804 q 150 822 143 817 l 317 953 q 335 958 324 958 q 353 953 345 958 l 519 822 q 529 810 526 817 q 528 796 532 804 q 520 785 526 793 q 512 772 515 777 q 503 763 509 768 q 491 759 497 758 q 476 765 484 760 l 335 863 l 193 768 q 161 771 173 755 l 142 796 m 154 279 q 207 136 154 195 q 335 77 259 77 q 463 136 411 77 q 515 279 515 195 q 463 420 515 362 q 335 478 411 478 q 207 420 259 478 q 154 279 154 362 z "},"õ":{"ha":669,"x_min":58,"x_max":611,"o":"m 58 279 q 139 484 58 397 q 335 570 220 570 q 474 530 410 570 q 574 424 538 490 q 611 279 611 357 q 530 73 611 159 q 335 -14 450 -14 q 196 26 260 -14 q 95 133 132 66 q 58 279 58 201 m 132 842 q 140 859 134 844 q 151 883 146 873 q 166 909 155 894 q 189 934 177 924 q 219 951 201 944 q 260 958 238 958 q 313 942 288 958 q 351 907 337 926 q 382 872 366 888 q 412 856 399 856 q 475 926 454 856 q 507 937 481 949 l 529 926 q 535 921 533 924 q 538 916 538 918 q 539 909 539 913 q 538 902 538 905 q 536 896 538 900 q 534 890 534 891 q 411 778 496 778 q 360 794 385 778 q 320 830 336 810 q 288 865 305 849 q 258 882 271 882 q 235 876 245 882 q 217 858 224 869 q 206 836 210 846 q 197 812 202 827 q 185 797 194 801 q 163 799 177 793 l 138 811 q 132 842 123 819 m 154 279 q 207 136 154 195 q 335 77 259 77 q 463 136 411 77 q 515 279 515 195 q 463 420 515 362 q 335 478 411 478 q 207 420 259 478 q 154 279 154 362 z "},"ö":{"ha":669,"x_min":58,"x_max":611,"o":"m 58 279 q 139 484 58 397 q 335 570 220 570 q 474 530 410 570 q 574 424 538 490 q 611 279 611 357 q 530 73 611 159 q 335 -14 450 -14 q 196 26 260 -14 q 95 133 132 66 q 58 279 58 201 m 134 878 q 153 925 134 905 q 199 945 172 945 q 246 925 227 945 q 265 878 265 905 q 246 831 265 850 q 199 812 227 812 q 153 831 172 812 q 134 878 134 850 m 154 279 q 207 136 154 195 q 335 77 259 77 q 463 136 411 77 q 515 279 515 195 q 463 420 515 362 q 335 478 411 478 q 207 420 259 478 q 154 279 154 362 m 401 878 q 420 925 401 905 q 467 945 439 945 q 514 925 494 945 q 533 878 533 905 q 514 831 533 850 q 467 812 494 812 q 420 831 439 812 q 401 878 401 850 z "},"÷":{"ha":747,"x_min":83,"x_max":664,"o":"m 83 463 l 83 501 q 92 519 83 511 q 110 528 100 528 l 639 528 q 656 519 649 528 q 664 501 664 511 l 664 463 q 656 444 664 452 q 639 436 649 436 l 110 436 q 92 444 100 436 q 83 463 83 452 m 290 237 q 314 294 290 271 q 370 317 337 317 q 426 294 403 317 q 449 237 449 271 q 426 181 449 205 q 370 158 403 158 q 314 182 338 158 q 290 237 290 205 m 290 734 q 314 791 290 768 q 370 814 337 814 q 426 791 403 814 q 449 734 449 768 q 426 679 449 702 q 370 656 403 656 q 314 679 338 656 q 290 734 290 703 z "},"ø":{"ha":667,"x_min":60,"x_max":610,"o":"m 60 281 q 140 484 60 399 q 335 570 220 570 q 513 500 435 570 l 542 529 q 561 537 550 537 q 579 529 572 537 l 586 522 q 594 505 594 515 q 586 486 594 494 l 554 454 q 610 281 610 376 q 530 73 610 160 q 335 -14 450 -14 q 157 53 233 -14 l 138 33 q 119 25 130 25 q 100 33 108 26 l 94 40 q 86 58 86 47 q 93 77 85 70 l 115 98 q 60 281 60 179 m 155 281 q 183 167 155 215 l 447 435 q 335 478 399 478 q 207 421 259 478 q 155 281 155 363 m 222 118 q 335 77 270 77 q 463 136 411 77 q 514 281 514 196 q 486 386 514 340 l 222 118 z "},"ù":{"ha":673,"x_min":92,"x_max":575,"o":"m 92 237 l 92 529 q 100 547 92 539 q 118 555 108 555 l 163 555 q 181 547 173 555 q 189 529 189 539 l 189 236 q 222 119 189 158 q 314 79 254 79 q 372 87 344 79 q 418 107 399 96 q 451 130 437 119 q 473 150 466 142 l 479 158 l 479 529 q 487 547 479 539 q 505 555 495 555 l 549 555 q 567 547 559 555 q 575 529 575 539 l 575 26 q 567 8 575 16 q 549 0 559 0 l 522 0 q 506 6 511 0 q 497 24 500 12 l 488 60 q 480 52 485 57 q 457 34 475 47 q 420 12 440 22 q 370 -6 401 2 q 307 -14 340 -14 q 92 237 92 -14 m 214 869 q 203 881 205 872 q 205 899 201 890 l 231 949 q 248 957 235 957 q 267 953 261 958 l 475 836 q 484 825 481 833 q 484 810 487 818 l 469 779 q 459 771 465 771 q 437 777 452 770 l 214 869 z "},"ú":{"ha":673,"x_min":92,"x_max":575,"o":"m 92 237 l 92 529 q 100 547 92 539 q 118 555 108 555 l 163 555 q 181 547 173 555 q 189 529 189 539 l 189 236 q 222 119 189 158 q 314 79 254 79 q 372 87 344 79 q 418 107 399 96 q 451 130 437 119 q 473 150 466 142 l 479 158 l 479 529 q 487 547 479 539 q 505 555 495 555 l 549 555 q 567 547 559 555 q 575 529 575 539 l 575 26 q 567 8 575 16 q 549 0 559 0 l 522 0 q 506 6 511 0 q 497 24 500 12 l 488 60 q 480 52 485 57 q 457 34 475 47 q 420 12 440 22 q 370 -6 401 2 q 307 -14 340 -14 q 92 237 92 -14 m 204 810 q 203 825 201 818 q 212 836 205 833 l 421 953 q 439 957 427 958 q 457 949 452 957 l 482 899 q 484 881 486 890 q 473 869 481 872 l 250 777 q 229 771 235 770 q 218 779 222 771 l 204 810 z "},"û":{"ha":673,"x_min":92,"x_max":575,"o":"m 92 237 l 92 529 q 100 547 92 539 q 118 555 108 555 l 163 555 q 181 547 173 555 q 189 529 189 539 l 189 236 q 222 119 189 158 q 314 79 254 79 q 372 87 344 79 q 418 107 399 96 q 451 130 437 119 q 473 150 466 142 l 479 158 l 479 529 q 487 547 479 539 q 505 555 495 555 l 549 555 q 567 547 559 555 q 575 529 575 539 l 575 26 q 567 8 575 16 q 549 0 559 0 l 522 0 q 506 6 511 0 q 497 24 500 12 l 488 60 q 480 52 485 57 q 457 34 475 47 q 420 12 440 22 q 370 -6 401 2 q 307 -14 340 -14 q 92 237 92 -14 m 149 796 q 147 810 144 804 q 157 822 150 817 l 323 953 q 342 958 331 958 q 359 953 352 958 l 526 822 q 536 810 533 817 q 534 796 538 804 q 527 785 532 793 q 519 772 522 777 q 510 763 515 768 q 498 759 505 758 q 484 765 492 760 l 342 863 l 200 768 q 168 771 180 755 l 149 796 z "},"ü":{"ha":673,"x_min":92,"x_max":575,"o":"m 92 237 l 92 529 q 100 547 92 539 q 118 555 108 555 l 163 555 q 181 547 173 555 q 189 529 189 539 l 189 236 q 222 119 189 158 q 314 79 254 79 q 372 87 344 79 q 418 107 399 96 q 451 130 437 119 q 473 150 466 142 l 479 158 l 479 529 q 487 547 479 539 q 505 555 495 555 l 549 555 q 567 547 559 555 q 575 529 575 539 l 575 26 q 567 8 575 16 q 549 0 559 0 l 522 0 q 506 6 511 0 q 497 24 500 12 l 488 60 q 480 52 485 57 q 457 34 475 47 q 420 12 440 22 q 370 -6 401 2 q 307 -14 340 -14 q 92 237 92 -14 m 138 878 q 157 925 138 905 q 203 945 176 945 q 250 925 231 945 q 269 878 269 905 q 250 831 269 850 q 203 812 231 812 q 157 831 176 812 q 138 878 138 850 m 406 878 q 425 925 406 905 q 471 945 444 945 q 518 925 498 945 q 538 878 538 905 q 518 831 538 850 q 471 812 498 812 q 425 831 444 812 q 406 878 406 850 z "},"ý":{"ha":647,"x_min":19,"x_max":625,"o":"m 20 525 q 19 547 14 538 q 40 555 24 555 l 102 555 q 125 541 117 555 l 330 115 l 332 115 l 526 541 q 550 555 534 555 l 603 555 q 625 546 618 555 q 624 524 631 537 l 197 -400 q 174 -416 189 -416 l 122 -416 q 99 -407 106 -416 q 100 -382 93 -397 l 278 1 l 20 525 m 192 810 q 191 825 189 818 q 200 836 193 833 l 408 953 q 427 957 414 958 q 444 949 439 957 l 469 899 q 471 881 473 890 q 461 869 469 872 l 237 777 q 216 771 222 770 q 205 779 210 771 l 192 810 z "},"þ":{"ha":669,"x_min":100,"x_max":611,"o":"m 100 -390 l 100 946 q 108 964 100 956 q 126 972 116 972 l 170 972 q 188 964 180 972 q 196 946 196 956 l 196 517 q 202 523 198 519 q 221 535 206 526 q 252 551 235 545 q 294 564 268 558 q 349 570 321 570 q 487 530 427 570 q 579 423 547 490 q 611 277 611 357 q 535 70 611 154 q 345 -14 458 -14 q 294 -9 319 -14 q 252 2 269 -4 q 222 16 235 9 q 202 27 209 22 l 196 32 l 196 -390 q 188 -408 196 -400 q 170 -416 180 -416 l 126 -416 q 108 -408 116 -416 q 100 -390 100 -400 m 197 127 q 216 114 204 122 q 262 93 227 106 q 332 79 298 79 q 463 137 411 79 q 514 278 514 194 q 469 424 514 366 q 339 482 424 482 q 290 475 314 482 q 250 458 266 468 q 221 438 234 448 q 203 420 209 428 l 197 414 l 197 127 z "},"ÿ":{"ha":647,"x_min":19,"x_max":625,"o":"m 20 525 q 19 547 14 538 q 40 555 24 555 l 102 555 q 125 541 117 555 l 330 115 l 332 115 l 526 541 q 550 555 534 555 l 603 555 q 625 546 618 555 q 624 524 631 537 l 197 -400 q 174 -416 189 -416 l 122 -416 q 99 -407 106 -416 q 100 -382 93 -397 l 278 1 l 20 525 m 131 878 q 150 925 131 905 q 196 945 169 945 q 243 925 224 945 q 262 878 262 905 q 243 831 262 850 q 196 812 224 812 q 150 831 169 812 q 131 878 131 850 m 399 878 q 418 925 399 905 q 464 945 437 945 q 511 925 492 945 q 530 878 530 905 q 511 831 530 850 q 464 812 492 812 q 418 831 437 812 q 399 878 399 850 z "},"Œ":{"ha":1343,"x_min":71,"x_max":1263,"o":"m 71 485 q 110 680 71 587 q 216 840 149 773 q 375 947 282 907 q 570 986 467 986 q 627 983 597 986 q 673 976 657 979 l 689 972 l 1236 972 q 1255 965 1248 972 q 1263 946 1263 957 l 1263 905 q 1255 887 1263 895 q 1236 879 1248 879 l 770 879 l 770 541 l 1168 541 q 1186 532 1178 541 q 1194 514 1194 524 l 1194 473 q 1186 454 1194 462 q 1168 447 1179 447 l 770 447 l 770 93 l 1236 93 q 1255 85 1248 93 q 1263 66 1263 77 l 1263 26 q 1255 8 1263 16 q 1236 0 1248 0 l 689 0 q 570 -14 632 -14 q 318 53 433 -14 q 137 233 203 119 q 71 485 71 348 m 222 686 q 195 640 222 686 q 168 485 168 593 q 222 284 168 376 q 369 137 276 191 q 570 83 461 83 q 663 93 620 83 l 663 876 q 570 888 610 888 q 369 833 461 888 q 222 686 276 779 z "},"œ":{"ha":1082,"x_min":57,"x_max":1029,"o":"m 57 281 q 137 485 57 399 q 332 570 217 570 q 457 537 399 570 q 554 450 515 505 q 649 538 591 507 q 778 570 707 570 q 957 499 884 570 q 1029 315 1029 428 q 1026 278 1029 302 q 1018 261 1025 268 q 1002 254 1011 254 l 604 254 q 667 129 614 183 q 787 75 720 75 q 925 115 860 75 q 932 119 927 117 q 938 122 937 121 q 943 125 939 123 q 948 127 946 127 q 952 127 949 127 q 956 126 954 127 q 960 123 958 125 q 964 118 962 121 q 976 102 968 113 q 987 86 983 92 q 995 75 994 79 q 995 64 997 71 q 982 50 992 58 q 897 6 951 26 q 778 -14 842 -14 q 650 18 707 -14 q 554 106 592 50 q 457 19 515 51 q 332 -14 399 -14 q 137 73 217 -14 q 57 281 57 160 m 153 281 q 204 136 153 196 q 332 77 256 77 q 459 136 408 77 q 511 281 511 196 q 459 421 511 363 q 332 478 408 478 q 204 421 256 478 q 153 281 153 363 m 606 330 l 935 330 q 887 438 932 395 q 778 481 842 481 q 661 438 709 481 q 606 330 613 395 z "},"Ÿ":{"ha":785,"x_min":1,"x_max":785,"o":"m 3 932 q 2 959 -5 945 q 25 972 9 972 l 90 972 q 113 960 103 972 l 393 572 l 673 960 q 696 972 683 972 l 761 972 q 784 959 777 972 q 783 932 791 945 l 444 469 l 444 26 q 436 8 444 16 q 418 0 428 0 l 364 0 q 345 8 353 0 q 338 26 338 16 l 338 468 l 3 932 m 180 1165 q 199 1213 180 1193 q 245 1232 218 1232 q 293 1213 273 1232 q 313 1165 313 1193 q 293 1119 313 1138 q 245 1100 273 1100 q 199 1119 218 1100 q 180 1165 180 1138 m 473 1165 q 493 1213 473 1193 q 539 1232 512 1232 q 586 1213 567 1232 q 606 1165 606 1193 q 586 1119 606 1138 q 539 1100 567 1100 q 493 1119 512 1100 q 473 1165 473 1138 z "},"ˆ":{"ha":517,"x_min":62,"x_max":450,"o":"m 64 796 q 62 810 60 804 q 72 822 65 817 l 239 953 q 257 958 246 958 q 275 953 268 958 l 441 822 q 450 796 460 810 q 443 785 448 793 q 435 772 438 777 q 426 763 431 768 q 413 759 420 758 q 399 765 407 760 l 257 863 l 115 768 q 83 771 95 755 l 64 796 z "},"˜":{"ha":528,"x_min":58,"x_max":466,"o":"m 58 842 q 66 859 60 844 q 77 883 72 873 q 92 909 81 894 q 115 934 103 924 q 145 951 127 944 q 186 958 164 958 q 229 948 209 958 q 264 922 250 937 q 290 892 278 907 q 315 866 302 877 q 339 856 328 856 q 401 926 381 856 q 433 937 408 948 l 456 926 q 462 921 460 924 q 465 916 465 918 q 466 909 466 913 q 465 902 465 905 q 463 896 465 900 q 461 890 461 891 q 338 778 423 778 q 287 794 312 778 q 247 830 262 810 q 214 865 231 849 q 184 882 197 882 q 161 876 172 882 q 143 858 151 869 q 132 836 136 846 q 123 812 128 827 q 112 797 120 801 q 89 799 103 793 l 64 811 q 58 842 49 819 z "}," ":{"ha":677,"x_min":0,"x_max":0,"o":""}," ":{"ha":1356,"x_min":0,"x_max":0,"o":""}," ":{"ha":677,"x_min":0,"x_max":0,"o":""}," ":{"ha":1356,"x_min":0,"x_max":0,"o":""}," ":{"ha":452,"x_min":0,"x_max":0,"o":""}," ":{"ha":338,"x_min":0,"x_max":0,"o":""}," ":{"ha":226,"x_min":0,"x_max":0,"o":""}," ":{"ha":226,"x_min":0,"x_max":0,"o":""}," ":{"ha":169,"x_min":0,"x_max":0,"o":""}," ":{"ha":271,"x_min":0,"x_max":0,"o":""}," ":{"ha":75,"x_min":0,"x_max":0,"o":""},"‐":{"ha":573,"x_min":115,"x_max":458,"o":"m 115 330 l 115 357 q 123 376 115 368 q 142 383 130 383 l 432 383 q 451 376 444 383 q 458 357 458 368 l 458 330 q 451 313 458 320 q 432 306 444 306 l 142 306 q 123 313 130 306 q 115 330 115 320 z "},"‑":{"ha":573,"x_min":115,"x_max":458,"o":"m 115 330 l 115 357 q 123 376 115 368 q 142 383 130 383 l 432 383 q 451 376 444 383 q 458 357 458 368 l 458 330 q 451 313 458 320 q 432 306 444 306 l 142 306 q 123 313 130 306 q 115 330 115 320 z "},"‒":{"ha":573,"x_min":115,"x_max":458,"o":"m 115 330 l 115 357 q 123 376 115 368 q 142 383 130 383 l 432 383 q 451 376 444 383 q 458 357 458 368 l 458 330 q 451 313 458 320 q 432 306 444 306 l 142 306 q 123 313 130 306 q 115 330 115 320 z "},"–":{"ha":801,"x_min":118,"x_max":684,"o":"m 118 335 l 118 350 q 125 369 118 361 q 144 376 133 376 l 657 376 q 676 369 669 376 q 684 350 684 361 l 684 335 q 676 317 684 325 q 657 310 669 310 l 144 310 q 125 317 133 310 q 118 335 118 325 z "},"—":{"ha":1107,"x_min":118,"x_max":989,"o":"m 118 335 l 118 350 q 125 369 118 361 q 144 376 133 376 l 962 376 q 981 369 974 376 q 989 350 989 361 l 989 335 q 981 317 989 325 q 962 310 974 310 l 144 310 q 125 317 133 310 q 118 335 118 325 z "},"‘":{"ha":283,"x_min":53,"x_max":226,"o":"m 53 718 q 90 866 53 795 q 170 975 127 936 q 203 978 189 992 l 222 958 q 225 944 228 954 q 214 925 223 934 q 127 750 127 848 q 144 751 133 751 q 200 728 176 751 q 224 672 224 704 q 200 616 224 639 q 144 593 177 593 q 79 621 105 593 q 53 718 53 650 z "},"’":{"ha":280,"x_min":60,"x_max":233,"o":"m 64 623 q 60 637 58 627 q 72 656 62 647 q 158 831 158 733 q 142 829 153 829 q 86 853 110 829 q 62 908 62 876 q 86 964 62 941 q 142 987 109 987 q 207 959 181 987 q 233 863 233 931 q 196 715 233 785 q 117 606 159 645 q 83 603 98 589 l 64 623 z "},"‚":{"ha":323,"x_min":75,"x_max":248,"o":"m 78 -221 q 75 -206 73 -216 q 86 -187 77 -196 q 172 -12 172 -110 q 155 -14 167 -14 q 100 10 123 -14 q 77 65 77 33 q 100 121 77 98 q 155 144 123 144 q 221 116 195 144 q 248 20 248 88 q 211 -128 248 -58 q 131 -237 174 -198 q 97 -240 112 -255 l 78 -221 z "},"“":{"ha":533,"x_min":53,"x_max":475,"o":"m 53 721 q 90 868 53 798 q 170 978 127 939 q 203 981 189 995 l 222 961 q 225 946 228 956 q 214 928 223 937 q 127 753 127 850 q 144 754 133 754 q 200 730 176 754 q 224 675 224 707 q 200 619 224 642 q 144 596 177 596 q 79 624 105 596 q 53 721 53 652 m 302 721 q 339 868 302 798 q 419 978 376 939 q 453 981 438 996 l 472 961 q 475 946 477 956 q 464 928 473 937 q 378 753 378 850 q 395 754 383 754 q 450 730 427 754 q 473 675 473 707 q 450 619 473 642 q 395 596 427 596 q 329 624 355 596 q 302 721 302 652 z "},"”":{"ha":530,"x_min":60,"x_max":484,"o":"m 64 623 q 60 637 58 627 q 72 656 62 647 q 158 831 158 733 q 142 829 153 829 q 86 853 110 829 q 62 908 62 876 q 86 964 62 941 q 142 987 109 987 q 207 959 181 987 q 233 863 233 931 q 196 715 233 785 q 117 606 159 645 q 83 603 98 589 l 64 623 m 314 623 q 311 637 309 627 q 322 656 313 647 q 408 831 408 733 q 392 829 403 829 q 336 853 360 829 q 313 908 313 876 q 336 964 313 941 q 392 987 359 987 q 457 959 431 987 q 484 863 484 931 q 447 715 484 785 q 367 606 410 645 q 334 603 348 589 l 314 623 z "},"„":{"ha":573,"x_min":75,"x_max":497,"o":"m 78 -221 q 75 -206 73 -216 q 86 -187 77 -196 q 172 -12 172 -110 q 155 -14 167 -14 q 100 10 123 -14 q 77 65 77 33 q 100 121 77 98 q 155 144 123 144 q 221 116 195 144 q 248 20 248 88 q 211 -128 248 -58 q 131 -237 174 -198 q 97 -240 112 -255 l 78 -221 m 328 -221 q 325 -206 322 -216 q 336 -187 327 -196 q 422 -12 422 -110 q 406 -14 417 -14 q 350 10 374 -14 q 326 65 326 33 q 350 121 326 98 q 406 144 373 144 q 471 116 445 144 q 497 20 497 88 q 460 -128 497 -58 q 380 -237 423 -198 q 347 -240 361 -254 l 328 -221 z "},"•":{"ha":491,"x_min":97,"x_max":395,"o":"m 97 311 q 140 418 97 374 q 243 463 183 463 q 350 418 305 463 q 395 311 395 374 q 350 209 395 252 q 243 165 305 165 q 140 209 183 165 q 97 311 97 252 z "},"…":{"ha":866,"x_min":83,"x_max":783,"o":"m 83 65 q 107 121 83 98 q 163 144 130 144 q 219 122 196 144 q 241 65 241 99 q 219 9 241 33 q 163 -14 196 -14 q 107 10 131 -14 q 83 65 83 33 m 351 65 q 375 121 351 98 q 431 144 398 144 q 487 122 464 144 q 510 65 510 99 q 487 9 510 33 q 431 -14 464 -14 q 375 10 399 -14 q 351 65 351 33 m 625 65 q 648 121 625 98 q 704 144 671 144 q 761 122 738 144 q 783 65 783 99 q 760 9 783 33 q 704 -14 737 -14 q 649 10 672 -14 q 625 65 625 33 z "}," ":{"ha":271,"x_min":0,"x_max":0,"o":""},"‹":{"ha":350,"x_min":57,"x_max":277,"o":"m 57 269 q 57 302 45 285 l 208 509 q 233 525 220 525 l 253 525 q 276 512 271 525 q 273 482 282 499 l 171 289 l 269 85 q 271 55 277 68 q 249 43 266 43 l 222 43 q 201 54 210 43 l 57 269 z "},"›":{"ha":350,"x_min":72,"x_max":292,"o":"m 75 482 q 72 512 66 499 q 96 525 78 525 l 115 525 q 140 509 130 525 l 292 302 q 292 269 303 285 l 147 54 q 126 43 138 43 l 100 43 q 77 55 83 43 q 79 85 72 68 l 178 289 l 75 482 z "}," ":{"ha":338,"x_min":0,"x_max":0,"o":""},"€":{"ha":1015,"x_min":28,"x_max":951,"o":"m 28 378 l 28 387 q 35 406 28 397 q 53 414 43 414 l 109 414 q 104 485 104 448 q 106 518 104 507 l 53 518 q 35 526 43 518 q 28 545 28 534 l 28 554 q 35 572 28 564 q 53 581 43 581 l 113 581 q 285 871 146 756 q 606 986 423 986 q 787 954 707 986 q 942 857 867 921 q 951 838 950 849 q 943 818 951 826 l 909 785 q 888 775 900 775 q 864 786 876 774 q 744 860 812 834 q 604 886 676 886 q 362 800 467 886 q 228 581 258 713 l 618 581 q 637 573 629 581 q 644 554 644 565 l 644 543 q 637 526 644 533 q 618 518 629 518 l 218 518 q 216 486 216 502 q 222 414 216 449 l 562 414 q 581 406 574 414 q 589 387 589 398 l 589 376 q 581 359 589 366 q 562 351 574 351 l 239 351 q 379 161 279 235 q 604 87 478 87 q 684 96 647 87 q 756 121 722 104 q 813 154 790 138 q 871 195 836 169 q 904 199 887 208 l 945 158 q 951 140 952 151 q 943 121 951 128 q 606 -14 805 -14 q 300 89 433 -14 q 122 351 166 191 l 53 351 q 35 359 43 351 q 28 378 28 368 z "},"™":{"ha":1001,"x_min":69,"x_max":917,"o":"m 69 930 l 69 946 q 77 964 69 956 q 96 972 85 972 l 361 972 q 380 965 372 972 q 387 946 387 957 l 387 930 q 380 911 387 919 q 361 904 372 904 l 264 904 l 264 579 q 256 561 264 569 q 237 553 248 553 l 220 553 q 201 561 208 553 q 193 579 193 568 l 193 904 l 96 904 q 77 911 85 904 q 69 930 69 919 m 433 585 l 505 958 q 515 973 507 966 q 532 979 523 979 l 538 979 q 551 974 544 979 q 561 964 559 969 l 673 669 l 787 964 q 797 974 789 969 q 811 979 805 979 l 817 979 q 833 973 825 979 q 843 958 841 966 l 917 583 q 911 562 919 570 q 890 553 903 553 l 873 553 q 857 560 865 553 q 847 576 849 567 l 800 806 l 700 561 q 691 552 698 556 q 677 549 684 549 l 669 549 q 655 553 663 549 q 646 562 648 557 l 549 806 l 500 575 q 490 560 498 567 q 473 553 481 553 l 460 553 q 439 562 446 553 q 433 585 431 572 z "},"◼":{"ha":555,"x_min":0,"x_max":555,"o":"m 0 0 l 0 555 l 555 555 l 555 0 l 0 0 z "},"ﬁ":{"ha":732,"x_min":32,"x_max":633,"o":"m 32 498 l 32 529 q 39 548 32 541 q 58 555 47 555 l 143 555 l 143 750 q 208 925 143 865 q 370 986 273 986 q 488 964 431 986 q 574 921 545 942 q 582 906 581 916 q 579 889 583 896 l 557 851 q 521 850 547 836 q 510 856 520 850 q 494 864 500 861 q 474 873 487 867 q 450 883 462 880 q 425 891 439 887 q 396 898 411 896 q 368 900 382 900 q 277 862 315 900 q 239 750 239 825 l 239 555 l 607 555 q 625 547 617 555 q 633 529 633 539 l 633 26 q 625 8 633 16 q 607 0 617 0 l 564 0 q 546 8 553 0 q 538 26 538 16 l 538 472 l 239 472 l 239 26 q 231 8 239 16 q 212 0 222 0 l 170 0 q 151 8 159 0 q 143 26 143 16 l 143 472 l 58 472 q 39 480 47 472 q 32 498 32 488 z "},"ﬂ":{"ha":736,"x_min":32,"x_max":636,"o":"m 32 498 l 32 529 q 39 548 32 541 q 58 555 47 555 l 143 555 l 143 750 q 208 925 143 865 q 368 986 272 986 q 431 979 401 986 q 482 961 461 972 q 518 940 503 951 q 541 922 534 930 l 549 916 l 559 950 q 586 972 566 972 l 610 972 q 628 964 620 972 q 636 946 636 956 l 636 26 q 628 8 636 16 q 610 0 620 0 l 567 0 q 549 8 557 0 q 541 26 541 16 l 541 806 q 533 815 538 809 q 513 836 529 821 q 479 863 496 851 q 433 884 461 874 q 375 893 405 893 q 327 886 350 893 q 283 862 304 878 q 251 818 263 846 q 239 750 239 789 l 239 555 l 400 555 q 419 548 412 555 q 427 529 427 541 l 427 498 q 419 480 427 488 q 400 472 412 472 l 239 472 l 239 26 q 231 8 239 16 q 212 0 222 0 l 170 0 q 151 8 159 0 q 143 26 143 16 l 143 472 l 58 472 q 39 480 47 472 q 32 498 32 488 z "},"ﬃ":{"ha":1112,"x_min":32,"x_max":1014,"o":"m 32 498 l 32 529 q 39 548 32 541 q 58 555 47 555 l 143 555 l 143 713 q 164 830 144 779 q 219 911 184 880 q 300 957 255 942 q 397 972 345 972 q 576 918 498 972 q 747 986 633 986 q 867 964 809 986 q 954 921 926 942 q 962 906 961 916 q 960 889 964 896 l 937 851 q 901 850 928 836 q 891 856 901 850 q 874 864 881 861 q 855 873 867 867 q 831 883 842 880 q 805 891 819 887 q 777 898 791 896 q 749 900 762 900 q 657 862 694 900 q 619 749 619 823 l 619 555 l 987 555 q 1006 547 998 555 q 1014 529 1014 539 l 1014 26 q 1006 8 1014 16 q 987 0 998 0 l 945 0 q 926 8 935 0 q 918 26 918 16 l 918 472 l 619 472 l 619 26 q 611 8 619 16 q 593 0 603 0 l 550 0 q 532 8 540 0 q 524 26 524 16 l 524 472 l 239 472 l 239 26 q 231 8 239 16 q 212 0 222 0 l 170 0 q 151 8 159 0 q 143 26 143 16 l 143 472 l 58 472 q 39 480 47 472 q 32 498 32 488 m 239 555 l 524 555 l 524 750 q 533 835 524 800 q 477 870 516 853 q 396 886 437 886 q 338 877 365 886 q 288 849 311 868 q 252 794 265 829 q 239 713 239 760 l 239 555 z "},"ﬄ":{"ha":1116,"x_min":32,"x_max":1017,"o":"m 32 498 l 32 529 q 39 548 32 541 q 58 555 47 555 l 143 555 l 143 713 q 164 831 143 780 q 220 912 184 882 q 301 958 256 943 q 397 972 346 972 q 576 918 498 972 q 751 986 633 986 q 813 979 783 986 q 863 961 843 972 q 899 940 883 951 q 922 922 914 930 l 929 916 l 940 950 q 966 972 946 972 l 990 972 q 1008 964 1000 972 q 1017 946 1017 956 l 1017 26 q 1008 8 1017 16 q 990 0 1000 0 l 947 0 q 929 8 937 0 q 921 26 921 16 l 921 806 q 914 815 918 809 q 893 836 909 821 q 859 863 877 851 q 813 884 842 874 q 755 893 785 893 q 707 886 730 893 q 664 862 684 878 q 631 818 644 846 q 619 750 619 789 l 619 555 l 781 555 q 800 548 792 555 q 807 529 807 541 l 807 498 q 800 480 807 488 q 781 472 792 472 l 619 472 l 619 26 q 611 8 619 16 q 593 0 603 0 l 550 0 q 532 8 540 0 q 524 26 524 16 l 524 472 l 239 472 l 239 26 q 231 8 239 16 q 212 0 222 0 l 170 0 q 151 8 159 0 q 143 26 143 16 l 143 472 l 58 472 q 39 480 47 472 q 32 498 32 488 m 239 555 l 524 555 l 524 750 q 533 835 524 800 q 477 870 516 853 q 396 886 437 886 q 338 877 365 886 q 288 849 311 868 q 252 794 265 829 q 239 713 239 760 l 239 555 z "}}}
